<svg width="21" height="21" viewBox="0 0 21 21" fill="none" xmlns="http://www.w3.org/2000/svg">
<path d="M10.5 0C11.8789 0 13.2443 0.271591 14.5182 0.799265C15.7921 1.32694 16.9496 2.10036 17.9246 3.07538C18.8996 4.05039 19.6731 5.2079 20.2007 6.48182C20.7284 7.75574 21 9.12112 21 10.5C21 13.2848 19.8938 15.9555 17.9246 17.9246C15.9555 19.8938 13.2848 21 10.5 21C9.12112 21 7.75574 20.7284 6.48182 20.2007C5.2079 19.6731 4.05039 18.8996 3.07538 17.9246C1.10625 15.9555 0 13.2848 0 10.5C0 7.71523 1.10625 5.04451 3.07538 3.07538C5.04451 1.10625 7.71523 0 10.5 0ZM5.25 8.4L10.5 13.65L15.75 8.4H5.25Z" fill="#FFD233"/>
</svg>
