<svg width="33" height="33" viewBox="0 0 33 33" fill="none" xmlns="http://www.w3.org/2000/svg">
<g clip-path="url(#clip0_313_58)" filter="url(#filter0_d_313_58)">
<path d="M27.7595 16.8692C28.1224 16.5059 28.3262 16.0134 28.3262 15.5C28.3262 14.9866 28.1224 14.4941 27.7595 14.1308L20.4539 6.82129C20.0904 6.45783 19.5974 6.25363 19.0834 6.25363C18.5694 6.25363 18.0764 6.45783 17.713 6.82129C17.3495 7.18476 17.1453 7.67773 17.1453 8.19175C17.1453 8.70577 17.3495 9.19874 17.713 9.56221L21.712 13.5625H6.81259C6.29873 13.5625 5.80592 13.7666 5.44257 14.13C5.07922 14.4933 4.87509 14.9861 4.87509 15.5C4.87509 16.0139 5.07922 16.5067 5.44257 16.87C5.80592 17.2334 6.29873 17.4375 6.81259 17.4375H21.712L17.713 21.4365C17.533 21.6165 17.3902 21.8301 17.2928 22.0653C17.1954 22.3004 17.1453 22.5524 17.1453 22.807C17.1453 23.0615 17.1954 23.3135 17.2928 23.5486C17.3902 23.7838 17.533 23.9974 17.713 24.1774C17.8929 24.3574 18.1066 24.5002 18.3417 24.5976C18.5769 24.695 18.8289 24.7451 19.0834 24.7451C19.3379 24.7451 19.59 24.695 19.8251 24.5976C20.0603 24.5002 20.2739 24.3574 20.4539 24.1774L27.7595 16.8692Z" fill="#111111"/>
</g>
<defs>
<filter id="filter0_d_313_58" x="-3" y="0" width="39" height="39" filterUnits="userSpaceOnUse" color-interpolation-filters="sRGB">
<feFlood flood-opacity="0" result="BackgroundImageFix"/>
<feColorMatrix in="SourceAlpha" type="matrix" values="0 0 0 0 0 0 0 0 0 0 0 0 0 0 0 0 0 0 127 0" result="hardAlpha"/>
<feOffset dy="4"/>
<feGaussianBlur stdDeviation="2"/>
<feComposite in2="hardAlpha" operator="out"/>
<feColorMatrix type="matrix" values="0 0 0 0 0 0 0 0 0 0 0 0 0 0 0 0 0 0 0.25 0"/>
<feBlend mode="normal" in2="BackgroundImageFix" result="effect1_dropShadow_313_58"/>
<feBlend mode="normal" in="SourceGraphic" in2="effect1_dropShadow_313_58" result="shape"/>
</filter>
<clipPath id="clip0_313_58">
<rect width="31" height="31" fill="white" transform="matrix(0 1 -1 0 32 0)"/>
</clipPath>
</defs>
</svg>
