<svg width="150" height="158" viewBox="0 0 150 158" fill="none" xmlns="http://www.w3.org/2000/svg">
<g filter="url(#filter0_i_744_587)">
<rect width="150" height="150" rx="75" fill="#D9D9D9" fill-opacity="0.7"/>
</g>
<g filter="url(#filter1_d_744_587)">
<path d="M75 36C77.9174 36 80.7153 37.1589 82.7782 39.2218C84.8411 41.2847 86 44.0826 86 47C86 49.9174 84.8411 52.7153 82.7782 54.7782C80.7153 56.8411 77.9174 58 75 58C72.0826 58 69.2847 56.8411 67.2218 54.7782C65.1589 52.7153 64 49.9174 64 47C64 44.0826 65.1589 41.2847 67.2218 39.2218C69.2847 37.1589 72.0826 36 75 36ZM75 63.5C87.155 63.5 97 68.4225 97 74.5V80H53V74.5C53 68.4225 62.845 63.5 75 63.5Z" fill="#545454"/>
</g>
<g filter="url(#filter2_d_744_587)">
<rect x="106" y="112" width="38" height="38" rx="19" fill="#FFC2BA"/>
</g>
<g clip-path="url(#clip0_744_587)">
<path d="M128.781 132.156C128.781 133.026 128.436 133.861 127.82 134.476C127.205 135.092 126.37 135.438 125.5 135.438C124.63 135.438 123.795 135.092 123.18 134.476C122.564 133.861 122.219 133.026 122.219 132.156C122.219 131.286 122.564 130.451 123.18 129.836C123.795 129.221 124.63 128.875 125.5 128.875C126.37 128.875 127.205 129.221 127.82 129.836C128.436 130.451 128.781 131.286 128.781 132.156Z" fill="#545454"/>
<path d="M117.625 126.25C116.929 126.25 116.261 126.527 115.769 127.019C115.277 127.511 115 128.179 115 128.875V136.75C115 137.446 115.277 138.114 115.769 138.606C116.261 139.098 116.929 139.375 117.625 139.375H133.375C134.071 139.375 134.739 139.098 135.231 138.606C135.723 138.114 136 137.446 136 136.75V128.875C136 128.179 135.723 127.511 135.231 127.019C134.739 126.527 134.071 126.25 133.375 126.25H131.837C131.141 126.25 130.473 125.973 129.981 125.481L128.894 124.394C128.402 123.902 127.734 123.625 127.038 123.625H123.962C123.266 123.625 122.598 123.902 122.106 124.394L121.019 125.481C120.527 125.973 119.859 126.25 119.163 126.25H117.625ZM118.281 128.875C118.107 128.875 117.94 128.806 117.817 128.683C117.694 128.56 117.625 128.393 117.625 128.219C117.625 128.045 117.694 127.878 117.817 127.755C117.94 127.632 118.107 127.562 118.281 127.562C118.455 127.562 118.622 127.632 118.745 127.755C118.868 127.878 118.938 128.045 118.938 128.219C118.938 128.393 118.868 128.56 118.745 128.683C118.622 128.806 118.455 128.875 118.281 128.875ZM130.094 132.156C130.094 133.375 129.61 134.543 128.748 135.405C127.887 136.266 126.718 136.75 125.5 136.75C124.282 136.75 123.113 136.266 122.252 135.405C121.39 134.543 120.906 133.375 120.906 132.156C120.906 130.938 121.39 129.769 122.252 128.908C123.113 128.046 124.282 127.562 125.5 127.562C126.718 127.562 127.887 128.046 128.748 128.908C129.61 129.769 130.094 130.938 130.094 132.156Z" fill="#545454"/>
</g>
<path d="M45.448 94.2727H47.2931V99.9403C47.2931 100.577 47.1412 101.134 46.8372 101.611C46.536 102.088 46.1142 102.46 45.5716 102.727C45.0289 102.991 44.3968 103.124 43.6752 103.124C42.9508 103.124 42.3173 102.991 41.7747 102.727C41.2321 102.46 40.8102 102.088 40.5091 101.611C40.2079 101.134 40.0574 100.577 40.0574 99.9403V94.2727H41.9025V99.7827C41.9025 100.115 41.975 100.411 42.1199 100.669C42.2676 100.928 42.475 101.131 42.742 101.278C43.0091 101.426 43.3201 101.5 43.6752 101.5C44.0332 101.5 44.3443 101.426 44.6085 101.278C44.8755 101.131 45.0815 100.928 45.2264 100.669C45.3741 100.411 45.448 100.115 45.448 99.7827V94.2727ZM48.7772 105.455V96.4545H50.5669V97.554H50.6479C50.7275 97.3778 50.8425 97.1989 50.9931 97.017C51.1465 96.8324 51.3453 96.679 51.5897 96.5568C51.8368 96.4318 52.1436 96.3693 52.5101 96.3693C52.9874 96.3693 53.4277 96.4943 53.8311 96.7443C54.2346 96.9915 54.557 97.3651 54.7985 97.8651C55.04 98.3622 55.1607 98.9858 55.1607 99.7358C55.1607 100.466 55.0428 101.082 54.807 101.585C54.574 102.085 54.2559 102.464 53.8525 102.723C53.4519 102.979 53.003 103.107 52.5059 103.107C52.1536 103.107 51.8539 103.048 51.6067 102.932C51.3624 102.815 51.1621 102.669 51.0059 102.493C50.8496 102.314 50.7303 102.134 50.6479 101.952H50.5925V105.455H48.7772ZM50.5542 99.7273C50.5542 100.116 50.6081 100.456 50.7161 100.746C50.824 101.036 50.9803 101.261 51.1848 101.423C51.3894 101.582 51.638 101.662 51.9306 101.662C52.226 101.662 52.476 101.581 52.6806 101.419C52.8851 101.254 53.04 101.027 53.1451 100.737C53.253 100.445 53.307 100.108 53.307 99.7273C53.307 99.3494 53.2544 99.017 53.1493 98.7301C53.0442 98.4432 52.8894 98.2187 52.6848 98.0568C52.4803 97.8949 52.2289 97.8139 51.9306 97.8139C51.6351 97.8139 51.3851 97.892 51.1806 98.0483C50.9789 98.2045 50.824 98.4261 50.7161 98.7131C50.6081 99 50.5542 99.3381 50.5542 99.7273ZM58.1863 94.2727V103H56.3709V94.2727H58.1863ZM62.5978 103.128C61.9359 103.128 61.3635 102.987 60.8805 102.706C60.4004 102.422 60.0297 102.027 59.7683 101.521C59.5069 101.013 59.3762 100.423 59.3762 99.7528C59.3762 99.0767 59.5069 98.4858 59.7683 97.9801C60.0297 97.4716 60.4004 97.0767 60.8805 96.7955C61.3635 96.5114 61.9359 96.3693 62.5978 96.3693C63.2598 96.3693 63.8308 96.5114 64.3109 96.7955C64.7939 97.0767 65.166 97.4716 65.4274 97.9801C65.6887 98.4858 65.8194 99.0767 65.8194 99.7528C65.8194 100.423 65.6887 101.013 65.4274 101.521C65.166 102.027 64.7939 102.422 64.3109 102.706C63.8308 102.987 63.2598 103.128 62.5978 103.128ZM62.6064 101.722C62.9075 101.722 63.1589 101.636 63.3606 101.466C63.5623 101.293 63.7143 101.057 63.8166 100.759C63.9217 100.46 63.9743 100.121 63.9743 99.7401C63.9743 99.3594 63.9217 99.0199 63.8166 98.7216C63.7143 98.4233 63.5623 98.1875 63.3606 98.0142C63.1589 97.8409 62.9075 97.7543 62.6064 97.7543C62.3024 97.7543 62.0467 97.8409 61.8393 98.0142C61.6348 98.1875 61.4799 98.4233 61.3748 98.7216C61.2725 99.0199 61.2214 99.3594 61.2214 99.7401C61.2214 100.121 61.2725 100.46 61.3748 100.759C61.4799 101.057 61.6348 101.293 61.8393 101.466C62.0467 101.636 62.3024 101.722 62.6064 101.722ZM68.8663 103.124C68.4487 103.124 68.0765 103.051 67.7498 102.906C67.4231 102.759 67.1646 102.541 66.9743 102.254C66.7868 101.964 66.693 101.604 66.693 101.172C66.693 100.808 66.7598 100.503 66.8933 100.256C67.0268 100.009 67.2086 99.8097 67.4387 99.6591C67.6689 99.5085 67.9302 99.3949 68.2228 99.3182C68.5183 99.2415 68.8279 99.1875 69.1518 99.1562C69.5325 99.1165 69.8393 99.0795 70.0723 99.0455C70.3052 99.0085 70.4743 98.9545 70.5794 98.8835C70.6845 98.8125 70.737 98.7074 70.737 98.5682V98.5426C70.737 98.2727 70.6518 98.0639 70.4814 97.9162C70.3137 97.7685 70.0751 97.6946 69.7654 97.6946C69.4387 97.6946 69.1788 97.767 68.9856 97.9119C68.7924 98.054 68.6646 98.233 68.6021 98.4489L66.9231 98.3125C67.0083 97.9148 67.176 97.571 67.426 97.2812C67.676 96.9886 67.9984 96.7642 68.3933 96.608C68.791 96.4489 69.2512 96.3693 69.774 96.3693C70.1376 96.3693 70.4856 96.4119 70.818 96.4972C71.1532 96.5824 71.4501 96.7145 71.7086 96.8935C71.97 97.0724 72.176 97.3026 72.3265 97.5838C72.4771 97.8622 72.5524 98.196 72.5524 98.5852V103H70.8308V102.092H70.7797C70.6745 102.297 70.5339 102.477 70.3578 102.634C70.1816 102.787 69.97 102.908 69.7228 102.996C69.4757 103.081 69.1902 103.124 68.8663 103.124ZM69.3862 101.871C69.6532 101.871 69.889 101.818 70.0936 101.713C70.2981 101.605 70.4586 101.46 70.5751 101.278C70.6916 101.097 70.7498 100.891 70.7498 100.661V99.9659C70.693 100.003 70.6149 100.037 70.5154 100.068C70.4189 100.097 70.3095 100.124 70.1873 100.149C70.0652 100.172 69.943 100.193 69.8208 100.213C69.6987 100.23 69.5879 100.246 69.4885 100.26C69.2754 100.291 69.0893 100.341 68.9302 100.409C68.7711 100.477 68.6475 100.57 68.5595 100.686C68.4714 100.8 68.4274 100.942 68.4274 101.112C68.4274 101.359 68.5169 101.548 68.6958 101.679C68.8777 101.807 69.1078 101.871 69.3862 101.871ZM76.3727 103.107C75.8755 103.107 75.4252 102.979 75.0218 102.723C74.6213 102.464 74.3031 102.085 74.0673 101.585C73.8343 101.082 73.7179 100.466 73.7179 99.7358C73.7179 98.9858 73.8386 98.3622 74.0801 97.8651C74.3216 97.3651 74.6426 96.9915 75.0431 96.7443C75.4466 96.4943 75.8883 96.3693 76.3684 96.3693C76.7349 96.3693 77.0403 96.4318 77.2846 96.5568C77.5318 96.679 77.7306 96.8324 77.8812 97.017C78.0346 97.1989 78.1511 97.3778 78.2306 97.554H78.286V94.2727H80.0971V103H78.3074V101.952H78.2306C78.1454 102.134 78.0247 102.314 77.8684 102.493C77.715 102.669 77.5147 102.815 77.2676 102.932C77.0233 103.048 76.725 103.107 76.3727 103.107ZM76.948 101.662C77.2406 101.662 77.4877 101.582 77.6895 101.423C77.894 101.261 78.0502 101.036 78.1582 100.746C78.269 100.456 78.3244 100.116 78.3244 99.7273C78.3244 99.3381 78.2704 99 78.1625 98.7131C78.0545 98.4261 77.8983 98.2045 77.6937 98.0483C77.4892 97.892 77.2406 97.8139 76.948 97.8139C76.6497 97.8139 76.3983 97.8949 76.1937 98.0568C75.9892 98.2187 75.8343 98.4432 75.7292 98.7301C75.6241 99.017 75.5716 99.3494 75.5716 99.7273C75.5716 100.108 75.6241 100.445 75.7292 100.737C75.8372 101.027 75.992 101.254 76.1937 101.419C76.3983 101.581 76.6497 101.662 76.948 101.662ZM83.8897 94.2727H85.9565L87.9466 98.0312H88.0318L90.0218 94.2727H92.0886L88.9054 99.9148V103H87.073V99.9148L83.8897 94.2727ZM94.6486 103.128C93.9867 103.128 93.4142 102.987 92.9313 102.706C92.4512 102.422 92.0804 102.027 91.8191 101.521C91.5577 101.013 91.427 100.423 91.427 99.7528C91.427 99.0767 91.5577 98.4858 91.8191 97.9801C92.0804 97.4716 92.4512 97.0767 92.9313 96.7955C93.4142 96.5114 93.9867 96.3693 94.6486 96.3693C95.3105 96.3693 95.8816 96.5114 96.3617 96.7955C96.8446 97.0767 97.2168 97.4716 97.4782 97.9801C97.7395 98.4858 97.8702 99.0767 97.8702 99.7528C97.8702 100.423 97.7395 101.013 97.4782 101.521C97.2168 102.027 96.8446 102.422 96.3617 102.706C95.8816 102.987 95.3105 103.128 94.6486 103.128ZM94.6571 101.722C94.9583 101.722 95.2097 101.636 95.4114 101.466C95.6131 101.293 95.7651 101.057 95.8674 100.759C95.9725 100.46 96.025 100.121 96.025 99.7401C96.025 99.3594 95.9725 99.0199 95.8674 98.7216C95.7651 98.4233 95.6131 98.1875 95.4114 98.0142C95.2097 97.8409 94.9583 97.7543 94.6571 97.7543C94.3532 97.7543 94.0975 97.8409 93.8901 98.0142C93.6855 98.1875 93.5307 98.4233 93.4256 98.7216C93.3233 99.0199 93.2722 99.3594 93.2722 99.7401C93.2722 100.121 93.3233 100.46 93.4256 100.759C93.5307 101.057 93.6855 101.293 93.8901 101.466C94.0975 101.636 94.3532 101.722 94.6571 101.722ZM103.248 100.213V96.4545H105.063V103H103.32V101.811H103.252C103.105 102.195 102.859 102.503 102.515 102.736C102.174 102.969 101.758 103.085 101.267 103.085C100.829 103.085 100.444 102.986 100.112 102.787C99.7793 102.588 99.5194 102.305 99.3319 101.939C99.1472 101.572 99.0534 101.134 99.0506 100.622V96.4545H100.866V100.298C100.869 100.685 100.972 100.99 101.177 101.214C101.382 101.439 101.656 101.551 101.999 101.551C102.218 101.551 102.423 101.501 102.613 101.402C102.803 101.3 102.957 101.149 103.073 100.95C103.193 100.751 103.251 100.506 103.248 100.213ZM106.515 103V96.4545H108.275V97.5966H108.344C108.463 97.1903 108.663 96.8835 108.944 96.6761C109.226 96.4659 109.55 96.3608 109.916 96.3608C110.007 96.3608 110.105 96.3665 110.21 96.3778C110.315 96.3892 110.407 96.4048 110.487 96.4247V98.0355C110.402 98.0099 110.284 97.9872 110.133 97.9673C109.983 97.9474 109.845 97.9375 109.72 97.9375C109.453 97.9375 109.214 97.9957 109.004 98.1122C108.797 98.2259 108.632 98.3849 108.51 98.5895C108.39 98.794 108.331 99.0298 108.331 99.2969V103H106.515ZM58.4734 118V109.273H61.9165C62.5785 109.273 63.1424 109.399 63.6083 109.652C64.0742 109.902 64.4293 110.25 64.6737 110.696C64.9208 111.139 65.0444 111.651 65.0444 112.23C65.0444 112.81 64.9194 113.321 64.6694 113.764C64.4194 114.207 64.0572 114.553 63.5827 114.8C63.1112 115.047 62.5401 115.17 61.8697 115.17H59.6751V113.692H61.5714C61.9265 113.692 62.2191 113.631 62.4492 113.509C62.6822 113.384 62.8555 113.212 62.9691 112.993C63.0856 112.771 63.1438 112.517 63.1438 112.23C63.1438 111.94 63.0856 111.687 62.9691 111.472C62.8555 111.253 62.6822 111.084 62.4492 110.964C62.2163 110.842 61.9208 110.781 61.5629 110.781H60.3185V118H58.4734ZM68.0241 114.216V118H66.2088V109.273H67.973V112.609H68.0497C68.1974 112.223 68.4361 111.92 68.7656 111.702C69.0952 111.48 69.5085 111.369 70.0057 111.369C70.4602 111.369 70.8565 111.469 71.1946 111.668C71.5355 111.864 71.7997 112.146 71.9872 112.516C72.1776 112.882 72.2713 113.321 72.2685 113.832V118H70.4531V114.156C70.456 113.753 70.3537 113.439 70.1463 113.214C69.9418 112.99 69.6548 112.878 69.2855 112.878C69.0384 112.878 68.8196 112.93 68.6293 113.036C68.4418 113.141 68.294 113.294 68.1861 113.496C68.081 113.695 68.027 113.935 68.0241 114.216ZM76.6545 118.128C75.9925 118.128 75.4201 117.987 74.9371 117.706C74.457 117.422 74.0863 117.027 73.8249 116.521C73.5636 116.013 73.4329 115.423 73.4329 114.753C73.4329 114.077 73.5636 113.486 73.8249 112.98C74.0863 112.472 74.457 112.077 74.9371 111.795C75.4201 111.511 75.9925 111.369 76.6545 111.369C77.3164 111.369 77.8874 111.511 78.3675 111.795C78.8505 112.077 79.2227 112.472 79.484 112.98C79.7454 113.486 79.8761 114.077 79.8761 114.753C79.8761 115.423 79.7454 116.013 79.484 116.521C79.2227 117.027 78.8505 117.422 78.3675 117.706C77.8874 117.987 77.3164 118.128 76.6545 118.128ZM76.663 116.722C76.9641 116.722 77.2156 116.636 77.4173 116.466C77.619 116.293 77.771 116.057 77.8732 115.759C77.9783 115.46 78.0309 115.121 78.0309 114.74C78.0309 114.359 77.9783 114.02 77.8732 113.722C77.771 113.423 77.619 113.187 77.4173 113.014C77.2156 112.841 76.9641 112.754 76.663 112.754C76.359 112.754 76.1033 112.841 75.896 113.014C75.6914 113.187 75.5366 113.423 75.4315 113.722C75.3292 114.02 75.2781 114.359 75.2781 114.74C75.2781 115.121 75.3292 115.46 75.4315 115.759C75.5366 116.057 75.6914 116.293 75.896 116.466C76.1033 116.636 76.359 116.722 76.663 116.722ZM84.538 111.455V112.818H80.5962V111.455H84.538ZM81.4911 109.886H83.3065V115.989C83.3065 116.156 83.332 116.287 83.3832 116.381C83.4343 116.472 83.5053 116.536 83.5962 116.572C83.69 116.609 83.7979 116.628 83.9201 116.628C84.0053 116.628 84.0906 116.621 84.1758 116.607C84.261 116.589 84.3263 116.577 84.3718 116.568L84.6573 117.919C84.5664 117.947 84.4386 117.98 84.2738 118.017C84.109 118.057 83.9087 118.081 83.6729 118.089C83.2354 118.107 82.8519 118.048 82.5224 117.915C82.1957 117.781 81.9414 117.574 81.7596 117.293C81.5778 117.011 81.4883 116.656 81.4911 116.227V109.886ZM88.6076 118.128C87.9457 118.128 87.3732 117.987 86.8903 117.706C86.4102 117.422 86.0394 117.027 85.7781 116.521C85.5167 116.013 85.386 115.423 85.386 114.753C85.386 114.077 85.5167 113.486 85.7781 112.98C86.0394 112.472 86.4102 112.077 86.8903 111.795C87.3732 111.511 87.9457 111.369 88.6076 111.369C89.2695 111.369 89.8406 111.511 90.3207 111.795C90.8036 112.077 91.1758 112.472 91.4371 112.98C91.6985 113.486 91.8292 114.077 91.8292 114.753C91.8292 115.423 91.6985 116.013 91.4371 116.521C91.1758 117.027 90.8036 117.422 90.3207 117.706C89.8406 117.987 89.2695 118.128 88.6076 118.128ZM88.6161 116.722C88.9173 116.722 89.1687 116.636 89.3704 116.466C89.5721 116.293 89.7241 116.057 89.8263 115.759C89.9315 115.46 89.984 115.121 89.984 114.74C89.984 114.359 89.9315 114.02 89.8263 113.722C89.7241 113.423 89.5721 113.187 89.3704 113.014C89.1687 112.841 88.9173 112.754 88.6161 112.754C88.3121 112.754 88.0565 112.841 87.8491 113.014C87.6445 113.187 87.4897 113.423 87.3846 113.722C87.2823 114.02 87.2312 114.359 87.2312 114.74C87.2312 115.121 87.2823 115.46 87.3846 115.759C87.4897 116.057 87.6445 116.293 87.8491 116.466C88.0565 116.636 88.3121 116.722 88.6161 116.722Z" fill="black" fill-opacity="0.65"/>
<defs>
<filter id="filter0_i_744_587" x="0" y="0" width="150" height="154" filterUnits="userSpaceOnUse" color-interpolation-filters="sRGB">
<feFlood flood-opacity="0" result="BackgroundImageFix"/>
<feBlend mode="normal" in="SourceGraphic" in2="BackgroundImageFix" result="shape"/>
<feColorMatrix in="SourceAlpha" type="matrix" values="0 0 0 0 0 0 0 0 0 0 0 0 0 0 0 0 0 0 127 0" result="hardAlpha"/>
<feOffset dy="4"/>
<feGaussianBlur stdDeviation="2"/>
<feComposite in2="hardAlpha" operator="arithmetic" k2="-1" k3="1"/>
<feColorMatrix type="matrix" values="0 0 0 0 0 0 0 0 0 0 0 0 0 0 0 0 0 0 0.25 0"/>
<feBlend mode="normal" in2="shape" result="effect1_innerShadow_744_587"/>
</filter>
<filter id="filter1_d_744_587" x="49" y="36" width="52" height="52" filterUnits="userSpaceOnUse" color-interpolation-filters="sRGB">
<feFlood flood-opacity="0" result="BackgroundImageFix"/>
<feColorMatrix in="SourceAlpha" type="matrix" values="0 0 0 0 0 0 0 0 0 0 0 0 0 0 0 0 0 0 127 0" result="hardAlpha"/>
<feOffset dy="4"/>
<feGaussianBlur stdDeviation="2"/>
<feComposite in2="hardAlpha" operator="out"/>
<feColorMatrix type="matrix" values="0 0 0 0 0 0 0 0 0 0 0 0 0 0 0 0 0 0 0.25 0"/>
<feBlend mode="normal" in2="BackgroundImageFix" result="effect1_dropShadow_744_587"/>
<feBlend mode="normal" in="SourceGraphic" in2="effect1_dropShadow_744_587" result="shape"/>
</filter>
<filter id="filter2_d_744_587" x="102" y="112" width="46" height="46" filterUnits="userSpaceOnUse" color-interpolation-filters="sRGB">
<feFlood flood-opacity="0" result="BackgroundImageFix"/>
<feColorMatrix in="SourceAlpha" type="matrix" values="0 0 0 0 0 0 0 0 0 0 0 0 0 0 0 0 0 0 127 0" result="hardAlpha"/>
<feOffset dy="4"/>
<feGaussianBlur stdDeviation="2"/>
<feComposite in2="hardAlpha" operator="out"/>
<feColorMatrix type="matrix" values="0 0 0 0 0 0 0 0 0 0 0 0 0 0 0 0 0 0 0.25 0"/>
<feBlend mode="normal" in2="BackgroundImageFix" result="effect1_dropShadow_744_587"/>
<feBlend mode="normal" in="SourceGraphic" in2="effect1_dropShadow_744_587" result="shape"/>
</filter>
<clipPath id="clip0_744_587">
<rect width="21" height="21" fill="white" transform="translate(115 121)"/>
</clipPath>
</defs>
</svg>
