<svg width="175" height="74" viewBox="0 0 175 74" fill="none" xmlns="http://www.w3.org/2000/svg">
<g filter="url(#filter0_d_23_2135)">
<path d="M40.1066 3.33863L5.96778 44.3497C5.2611 45.1986 5.37642 46.4597 6.22535 47.1664L10.1228 50.4107C10.1228 50.4107 16.8205 46.7857 20.6702 50.4504C24.52 54.115 21.5354 59.9109 21.5354 59.9109L25.4233 63.1473C26.276 63.8571 27.5433 63.7373 28.2478 62.8803L62.3703 21.3737C63.0428 20.5557 62.961 19.3552 62.1839 18.6358L58.6312 15.3475C58.6312 15.3475 52.477 19.4249 48.6728 16.2582C44.8686 13.0914 47.8077 6.79763 47.8077 6.79763L42.8553 3.02693C42.0033 2.37826 40.7916 2.51567 40.1066 3.33863Z" stroke="black" stroke-width="3"/>
<line x1="34.2232" y1="13.7277" x2="55.9615" y2="31.8232" stroke="black" stroke-width="2" stroke-dasharray="4 4"/>
</g>
<g filter="url(#filter1_d_23_2135)">
<path d="M42.805 30.425V32.765H39.985V41H37.045V32.765H34.255V30.425H42.805ZM47.7327 30.425V41H44.7927V30.425H47.7327ZM49.947 35.69C49.947 34.65 50.162 33.725 50.592 32.915C51.032 32.095 51.652 31.46 52.452 31.01C53.252 30.55 54.172 30.32 55.212 30.32C56.532 30.32 57.642 30.675 58.542 31.385C59.442 32.085 60.022 33.04 60.282 34.25H57.117C56.927 33.85 56.662 33.545 56.322 33.335C55.992 33.125 55.607 33.02 55.167 33.02C54.487 33.02 53.942 33.265 53.532 33.755C53.132 34.235 52.932 34.88 52.932 35.69C52.932 36.51 53.132 37.165 53.532 37.655C53.942 38.135 54.487 38.375 55.167 38.375C55.607 38.375 55.992 38.27 56.322 38.06C56.662 37.85 56.927 37.545 57.117 37.145H60.282C60.022 38.355 59.442 39.315 58.542 40.025C57.642 40.725 56.532 41.075 55.212 41.075C54.172 41.075 53.252 40.85 52.452 40.4C51.652 39.94 51.032 39.305 50.592 38.495C50.162 37.675 49.947 36.74 49.947 35.69ZM68.8292 41L65.5142 36.365V41H62.5742V30.425H65.5142V34.985L68.7992 30.425H72.1892L68.3042 35.555L72.3842 41H68.8292ZM77.298 32.78V34.505H80.673V36.74H77.298V38.645H81.123V41H74.358V30.425H81.123V32.78H77.298ZM91.4407 30.425V32.765H88.6207V41H85.6807V32.765H82.8907V30.425H91.4407ZM102.893 30.425V41H99.9535V36.755H96.3685V41H93.4285V30.425H96.3685V34.4H99.9535V30.425H102.893ZM108.356 30.425V36.56C108.356 37.13 108.486 37.57 108.746 37.88C109.016 38.19 109.421 38.345 109.961 38.345C110.501 38.345 110.906 38.19 111.176 37.88C111.456 37.56 111.596 37.12 111.596 36.56V30.425H114.536V36.56C114.536 37.53 114.331 38.36 113.921 39.05C113.511 39.73 112.951 40.245 112.241 40.595C111.541 40.935 110.761 41.105 109.901 41.105C109.041 41.105 108.271 40.935 107.591 40.595C106.921 40.245 106.391 39.73 106.001 39.05C105.621 38.37 105.431 37.54 105.431 36.56V30.425H108.356ZM123.805 35.57C124.425 35.71 124.915 36.02 125.275 36.5C125.645 36.97 125.83 37.51 125.83 38.12C125.83 39.02 125.52 39.725 124.9 40.235C124.28 40.745 123.41 41 122.29 41H117.055V30.425H122.125C123.205 30.425 124.05 30.665 124.66 31.145C125.28 31.625 125.59 32.3 125.59 33.17C125.59 33.79 125.425 34.31 125.095 34.73C124.775 35.14 124.345 35.42 123.805 35.57ZM119.995 34.625H121.48C122.22 34.625 122.59 34.32 122.59 33.71C122.59 33.08 122.22 32.765 121.48 32.765H119.995V34.625ZM121.705 38.63C122.445 38.63 122.815 38.32 122.815 37.7C122.815 37.38 122.715 37.135 122.515 36.965C122.325 36.795 122.05 36.71 121.69 36.71H119.995V38.63H121.705ZM129.443 41.12C128.923 41.12 128.503 40.98 128.183 40.7C127.873 40.41 127.718 40.045 127.718 39.605C127.718 39.165 127.873 38.8 128.183 38.51C128.503 38.22 128.923 38.075 129.443 38.075C129.953 38.075 130.363 38.22 130.673 38.51C130.993 38.8 131.153 39.165 131.153 39.605C131.153 40.035 130.993 40.395 130.673 40.685C130.363 40.975 129.953 41.12 129.443 41.12ZM133.07 35.69C133.07 34.65 133.285 33.725 133.715 32.915C134.155 32.095 134.775 31.46 135.575 31.01C136.375 30.55 137.295 30.32 138.335 30.32C139.655 30.32 140.765 30.675 141.665 31.385C142.565 32.085 143.145 33.04 143.405 34.25H140.24C140.05 33.85 139.785 33.545 139.445 33.335C139.115 33.125 138.73 33.02 138.29 33.02C137.61 33.02 137.065 33.265 136.655 33.755C136.255 34.235 136.055 34.88 136.055 35.69C136.055 36.51 136.255 37.165 136.655 37.655C137.065 38.135 137.61 38.375 138.29 38.375C138.73 38.375 139.115 38.27 139.445 38.06C139.785 37.85 140.05 37.545 140.24 37.145H143.405C143.145 38.355 142.565 39.315 141.665 40.025C140.765 40.725 139.655 41.075 138.335 41.075C137.295 41.075 136.375 40.85 135.575 40.4C134.775 39.94 134.155 39.305 133.715 38.495C133.285 37.675 133.07 36.74 133.07 35.69ZM150.767 41.105C149.777 41.105 148.867 40.875 148.037 40.415C147.207 39.945 146.547 39.3 146.057 38.48C145.577 37.65 145.337 36.715 145.337 35.675C145.337 34.635 145.577 33.705 146.057 32.885C146.547 32.055 147.207 31.41 148.037 30.95C148.867 30.49 149.777 30.26 150.767 30.26C151.767 30.26 152.677 30.49 153.497 30.95C154.327 31.41 154.982 32.055 155.462 32.885C155.942 33.705 156.182 34.635 156.182 35.675C156.182 36.715 155.942 37.65 155.462 38.48C154.982 39.3 154.327 39.945 153.497 40.415C152.667 40.875 151.757 41.105 150.767 41.105ZM150.767 38.375C151.517 38.375 152.107 38.13 152.537 37.64C152.977 37.15 153.197 36.495 153.197 35.675C153.197 34.835 152.977 34.175 152.537 33.695C152.107 33.205 151.517 32.96 150.767 32.96C150.007 32.96 149.412 33.205 148.982 33.695C148.552 34.175 148.337 34.835 148.337 35.675C148.337 36.505 148.552 37.165 148.982 37.655C149.412 38.135 150.007 38.375 150.767 38.375ZM170.749 30.425V41H167.809V35.165L165.814 41H163.354L161.344 35.12V41H158.404V30.425H161.959L164.614 37.295L167.209 30.425H170.749Z" fill="black"/>
</g>
<defs>
<filter id="filter0_d_23_2135" x="0.00482178" y="1.11804" width="68.3205" height="71.9923" filterUnits="userSpaceOnUse" color-interpolation-filters="sRGB">
<feFlood flood-opacity="0" result="BackgroundImageFix"/>
<feColorMatrix in="SourceAlpha" type="matrix" values="0 0 0 0 0 0 0 0 0 0 0 0 0 0 0 0 0 0 127 0" result="hardAlpha"/>
<feOffset dy="4"/>
<feGaussianBlur stdDeviation="2"/>
<feComposite in2="hardAlpha" operator="out"/>
<feColorMatrix type="matrix" values="0 0 0 0 0 0 0 0 0 0 0 0 0 0 0 0 0 0 0.25 0"/>
<feBlend mode="normal" in2="BackgroundImageFix" result="effect1_dropShadow_23_2135"/>
<feBlend mode="normal" in="SourceGraphic" in2="effect1_dropShadow_23_2135" result="shape"/>
</filter>
<filter id="filter1_d_23_2135" x="30.255" y="30.26" width="144.494" height="18.86" filterUnits="userSpaceOnUse" color-interpolation-filters="sRGB">
<feFlood flood-opacity="0" result="BackgroundImageFix"/>
<feColorMatrix in="SourceAlpha" type="matrix" values="0 0 0 0 0 0 0 0 0 0 0 0 0 0 0 0 0 0 127 0" result="hardAlpha"/>
<feOffset dy="4"/>
<feGaussianBlur stdDeviation="2"/>
<feComposite in2="hardAlpha" operator="out"/>
<feColorMatrix type="matrix" values="0 0 0 0 0 0 0 0 0 0 0 0 0 0 0 0 0 0 0.25 0"/>
<feBlend mode="normal" in2="BackgroundImageFix" result="effect1_dropShadow_23_2135"/>
<feBlend mode="normal" in="SourceGraphic" in2="effect1_dropShadow_23_2135" result="shape"/>
</filter>
</defs>
</svg>
