<svg width="734" height="94" viewBox="0 0 734 94" fill="none" xmlns="http://www.w3.org/2000/svg">
<path d="M49.8601 50.2388L49.1227 47.85L49.3668 52.6896L49.8601 50.2388ZM61.209 57.1254L59.2464 58.6741L59.2543 58.6841L59.2623 58.694L61.209 57.1254ZM58.6578 85.6762L60.283 87.5759L60.286 87.5733L58.6578 85.6762ZM1.45803 92.1907L-1.04181 92.2191L-1.01344 94.7189L1.4864 94.6906L1.45803 92.1907ZM0.541955 11.4659L0.513586 8.96607L-1.98625 8.99444L-1.95788 11.4943L0.541955 11.4659ZM56.1473 16.4703L54.5881 18.4244L54.5959 18.4307L54.6039 18.4369L56.1473 16.4703ZM59.6751 43.572L57.7099 42.0266L57.6983 42.0414L57.687 42.0563L59.6751 43.572ZM20.5763 43.9007L18.0764 43.929L18.1048 46.4289L20.6047 46.4005L20.5763 43.9007ZM40.7915 41.6011L42.3965 43.5179L42.4055 43.5103L40.7915 41.6011ZM40.648 28.9519L39.0355 30.8624L39.0564 30.8801L39.0777 30.8973L40.648 28.9519ZM20.3845 26.9968L20.3561 24.4969L17.8563 24.5253L17.8846 27.0251L20.3845 26.9968ZM42.9955 73.6632L44.6095 75.5724L44.6176 75.5654L42.9955 73.6632ZM42.7304 60.4403L41.1056 62.3403L41.1248 62.3567L41.1442 62.3727L42.7304 60.4403ZM20.7394 58.2747L20.711 55.7749L18.2112 55.8033L18.2396 58.3031L20.7394 58.2747ZM20.9417 76.0986L18.4418 76.127L18.4702 78.6268L20.97 78.5984L20.9417 76.0986ZM49.3668 52.6896C53.4917 53.5199 56.747 55.5065 59.2464 58.6741L63.1716 55.5768C59.9145 51.4492 55.6038 48.8447 50.3534 47.7879L49.3668 52.6896ZM59.2623 58.694C61.7802 61.8189 63.058 65.3973 63.1048 69.5247L68.1045 69.468C68.0452 64.2427 66.3925 59.5738 63.1556 55.5568L59.2623 58.694ZM63.1048 69.5247C63.1738 75.6052 61.1231 80.266 57.0296 83.7791L60.286 87.5733C65.6081 83.0058 68.1886 76.8799 68.1045 69.468L63.1048 69.5247ZM57.0326 83.7766C52.9905 87.2347 47.1022 89.1726 39.0322 89.2642L39.089 94.2638C47.8846 94.164 55.0611 92.0434 60.283 87.5759L57.0326 83.7766ZM39.0322 89.2642L1.42966 89.6909L1.4864 94.6906L39.089 94.2638L39.0322 89.2642ZM3.95787 92.1623L3.04179 11.4375L-1.95788 11.4943L-1.04181 92.2191L3.95787 92.1623ZM0.570323 13.9657L36.908 13.5534L36.8512 8.5537L0.513586 8.96607L0.570323 13.9657ZM36.908 13.5534C44.7522 13.4644 50.5412 15.1953 54.5881 18.4244L57.7066 14.5161C52.4688 10.3367 45.4126 8.45655 36.8512 8.5537L36.908 13.5534ZM54.6039 18.4369C58.6783 21.6344 60.7704 25.9671 60.8356 31.713L65.8353 31.6563C65.7543 24.523 63.0544 18.7128 57.6907 14.5036L54.6039 18.4369ZM60.8356 31.713C60.8843 36.0018 59.7912 39.3798 57.7099 42.0266L61.6403 45.1173C64.5473 41.4205 65.8945 36.8736 65.8353 31.6563L60.8356 31.713ZM57.687 42.0563C55.6118 44.7782 52.7943 46.7166 49.1227 47.85L50.5975 52.6276C55.1775 51.2138 58.9034 48.7076 61.6632 45.0877L57.687 42.0563ZM20.6047 46.4005L33.4838 46.2543L33.4271 41.2547L20.5479 41.4008L20.6047 46.4005ZM33.4838 46.2543C37.0144 46.2143 40.1147 45.4284 42.3965 43.5179L39.1865 39.6843C38.1265 40.5719 36.3361 41.2217 33.4271 41.2547L33.4838 46.2543ZM42.4055 43.5103C44.8399 41.4524 45.9023 38.5536 45.8644 35.2181L40.8647 35.2749C40.8895 37.4591 40.2365 38.7967 39.1775 39.6919L42.4055 43.5103ZM45.8644 35.2181C45.8266 31.8827 44.6987 29.0088 42.2182 27.0066L39.0777 30.8973C40.1568 31.7682 40.8399 33.0907 40.8647 35.2749L45.8644 35.2181ZM42.2604 27.0415C39.9319 25.0762 36.793 24.3104 33.2353 24.3508L33.292 29.3504C36.1739 29.3177 37.9578 29.9528 39.0355 30.8624L42.2604 27.0415ZM33.2353 24.3508L20.3561 24.4969L20.4128 29.4966L33.292 29.3504L33.2353 24.3508ZM17.8846 27.0251L18.0764 43.929L23.0761 43.8723L22.8843 26.9684L17.8846 27.0251ZM35.4591 78.434C39.0861 78.3928 42.2593 77.5591 44.6094 75.5724L41.3815 71.754C40.2383 72.7204 38.3683 73.4007 35.4024 73.4343L35.4591 78.434ZM44.6176 75.5654C47.1106 73.4396 48.2196 70.4758 48.1808 67.0489L43.1811 67.1056C43.2066 69.3517 42.5253 70.7786 41.3733 71.7609L44.6176 75.5654ZM48.1808 67.0489C48.1414 63.5843 46.9023 60.6304 44.3166 58.5079L41.1442 62.3727C42.4281 63.4265 43.156 64.8973 43.1811 67.1056L48.1808 67.0489ZM44.3552 58.5403C41.8974 56.4385 38.6593 55.5712 34.9701 55.6131L35.0269 60.6128C37.9306 60.5798 39.8471 61.2641 41.1056 62.3403L44.3552 58.5403ZM34.9701 55.6131L20.711 55.7749L20.7678 60.7746L35.0269 60.6128L34.9701 55.6131ZM18.2396 58.3031L18.4418 76.127L23.4415 76.0702L23.2392 58.2464L18.2396 58.3031ZM20.97 78.5984L35.4591 78.434L35.4024 73.4343L20.9133 73.5987L20.97 78.5984ZM100.206 86.5848L99.0081 88.7789L99.0194 88.7851L100.206 86.5848ZM84.9754 72.0367L82.8255 73.3127L82.8347 73.3281L82.844 73.3434L84.9754 72.0367ZM84.4912 29.3745L82.3308 28.1165L82.3251 28.1263L82.3195 28.1361L84.4912 29.3745ZM99.3882 14.4845L98.1516 12.3117L98.1404 12.3181L99.3882 14.4845ZM141.131 14.0108L139.932 16.2049L139.944 16.211L141.131 14.0108ZM156.247 28.5602L154.092 29.8279L154.098 29.8377L154.104 29.8475L156.247 28.5602ZM156.731 71.2224L158.903 72.4608L158.909 72.4493L156.731 71.2224ZM141.949 86.1111L143.197 88.2775L141.949 86.1111ZM136.327 67.0837L134.46 65.4214L134.452 65.4306L134.444 65.4399L136.327 67.0837ZM135.941 33.0459L134.095 34.732L134.111 34.7493L134.127 34.7664L135.941 33.0459ZM104.892 33.2832L103.04 31.6043L103.031 31.6134L103.023 31.6226L104.892 33.2832ZM105.281 67.551L103.435 69.2371L103.451 69.2545L103.467 69.2715L105.281 67.551ZM121.167 89.1371C113.982 89.2187 107.407 87.6286 101.393 84.3846L99.0194 88.7851C105.812 92.4495 113.229 94.2275 121.223 94.1368L121.167 89.1371ZM101.405 84.3907C95.468 81.1484 90.7101 76.6077 87.1067 70.7301L82.844 73.3434C86.8962 79.953 92.2923 85.1111 99.0081 88.7789L101.405 84.3907ZM87.1252 70.7607C83.6141 64.8454 81.7978 58.1728 81.7128 50.6824L76.7132 50.7391C76.8074 59.0409 78.8327 66.5857 82.8255 73.3127L87.1252 70.7607ZM81.7128 50.6824C81.6278 43.1916 83.2928 36.5231 86.663 30.6128L82.3195 28.1361C78.4729 34.8819 76.619 42.4376 76.7132 50.7391L81.7128 50.6824ZM86.6517 30.6324C90.1208 24.6745 94.7744 20.027 100.636 16.6508L98.1404 12.3181C91.5096 16.1374 86.2319 21.4166 82.3308 28.1165L86.6517 30.6324ZM100.625 16.6572C106.563 13.2775 113.101 11.5387 120.285 11.4571L120.228 6.45745C112.234 6.54818 104.859 8.49412 98.1516 12.3117L100.625 16.6572ZM120.285 11.4571C127.47 11.3756 134.002 12.9661 139.932 16.2049L142.329 11.8167C135.607 8.14525 128.223 6.36673 120.228 6.45745L120.285 11.4571ZM139.944 16.211C145.947 19.4495 150.65 23.9775 154.092 29.8279L158.401 27.2924C154.495 20.652 149.12 15.4805 142.318 11.8105L139.944 16.211ZM154.104 29.8475C157.607 35.6798 159.423 42.3087 159.508 49.7995L164.508 49.7428C164.413 41.4413 162.388 33.9296 158.39 27.2728L154.104 29.8475ZM159.508 49.7995C159.593 57.29 157.928 64.0021 154.553 69.9955L158.909 72.4493C162.748 65.6334 164.602 58.0446 164.508 49.7428L159.508 49.7995ZM154.559 69.984C151.168 75.9304 146.558 80.5712 140.701 83.9448L143.197 88.2775C149.832 84.4555 155.076 79.1704 158.902 72.4608L154.559 69.984ZM140.701 83.9448C134.846 87.3173 128.351 89.0556 121.167 89.1371L121.223 94.1368C129.218 94.0461 136.559 92.1005 143.197 88.2775L140.701 83.9448ZM121.02 76.198C128.077 76.1179 133.9 73.6678 138.211 68.7274L134.444 65.4399C131.186 69.1727 126.785 71.1322 120.963 71.1983L121.02 76.198ZM138.195 68.7459C142.555 63.8481 144.584 57.5049 144.499 49.9699L139.499 50.0266C139.574 56.5973 137.822 61.6444 134.46 65.4214L138.195 68.7459ZM144.499 49.9699C144.413 42.3683 142.244 36.0579 137.755 31.3253L134.127 34.7664C137.553 38.3779 139.424 43.3691 139.499 50.0266L144.499 49.9699ZM137.787 31.3598C133.365 26.5186 127.488 24.2012 120.431 24.2813L120.487 29.281C126.309 29.2149 130.754 31.074 134.095 34.732L137.787 31.3598ZM120.431 24.2813C113.321 24.362 107.433 26.7568 103.04 31.6043L106.744 34.9622C110.074 31.2881 114.565 29.3482 120.487 29.281L120.431 24.2813ZM103.023 31.6226C98.7239 36.4609 96.75 42.8533 96.8369 50.5107L101.837 50.454C101.76 43.699 103.489 38.6253 106.761 34.9438L103.023 31.6226ZM96.8369 50.5107C96.923 58.1017 99.0463 64.4327 103.435 69.2371L107.127 65.8649C103.752 62.1702 101.912 57.1221 101.837 50.454L96.8369 50.5107ZM103.467 69.2715C107.97 74.018 113.91 76.2786 121.02 76.198L120.963 71.1983C115.04 71.2655 110.507 69.428 107.095 65.8305L103.467 69.2715ZM196.356 85.4937L195.157 87.6878L195.169 87.6939L196.356 85.4937ZM181.124 70.9456L178.975 72.2216L178.984 72.237L178.993 72.2523L181.124 70.9456ZM180.64 28.2833L178.48 27.0254L178.474 27.0351L178.469 27.045L180.64 28.2833ZM195.537 13.3933L194.301 11.2206L194.29 11.227L195.537 13.3933ZM237.28 12.9196L236.081 15.1138L236.093 15.1199L237.28 12.9196ZM252.396 27.469L250.241 28.7368L250.247 28.7466L250.253 28.7564L252.396 27.469ZM252.88 70.1313L255.052 71.3697L255.058 71.3582L252.88 70.1313ZM238.098 85.02L239.346 87.1863L238.098 85.02ZM232.477 65.9926L230.609 64.3303L230.601 64.3395L230.593 64.3488L232.477 65.9926ZM232.09 31.9547L230.244 33.6408L230.26 33.6582L230.277 33.6753L232.09 31.9547ZM201.041 32.1921L199.189 30.5132L199.18 30.5223L199.172 30.5315L201.041 32.1921ZM201.43 66.4599L199.584 68.146L199.6 68.1634L199.616 68.1804L201.43 66.4599ZM217.316 88.046C210.131 88.1276 203.556 86.5375 197.542 83.2935L195.169 87.6939C201.961 91.3583 209.378 93.1364 217.373 93.0457L217.316 88.046ZM197.554 83.2996C191.617 80.0573 186.859 75.5166 183.256 69.6389L178.993 72.2523C183.045 78.8619 188.441 84.0199 195.157 87.6878L197.554 83.2996ZM183.274 69.6696C179.763 63.7543 177.947 57.0817 177.862 49.5912L172.862 49.648C172.956 57.9498 174.982 65.4946 178.975 72.2216L183.274 69.6696ZM177.862 49.5912C177.777 42.1005 179.442 35.432 182.812 29.5217L178.469 27.045C174.622 33.7907 172.768 41.3464 172.862 49.648L177.862 49.5912ZM182.801 29.5413C186.27 23.5834 190.923 18.9359 196.785 15.5597L194.29 11.227C187.659 15.0463 182.381 20.3255 178.48 27.0254L182.801 29.5413ZM196.774 15.5661C202.712 12.1864 209.25 10.4476 216.434 10.366L216.378 5.36634C208.383 5.45706 201.008 7.403 194.301 11.2206L196.774 15.5661ZM216.434 10.366C223.619 10.2845 230.151 11.8749 236.081 15.1137L238.478 10.7255C231.756 7.05413 224.372 5.27562 216.378 5.36634L216.434 10.366ZM236.093 15.1199C242.096 18.3584 246.799 22.8864 250.241 28.7368L254.55 26.2013C250.644 19.5609 245.27 14.3894 238.467 10.7194L236.093 15.1199ZM250.253 28.7564C253.756 34.5886 255.572 41.2176 255.657 48.7084L260.657 48.6517C260.562 40.3501 258.538 32.8385 254.539 26.1817L250.253 28.7564ZM255.657 48.7084C255.742 56.1989 254.078 62.911 250.702 68.9044L255.058 71.3582C258.897 64.5423 260.751 56.9535 260.657 48.6517L255.657 48.7084ZM250.708 68.8929C247.317 74.8393 242.707 79.4801 236.85 82.8537L239.346 87.1863C245.981 83.3644 251.226 78.0793 255.052 71.3697L250.708 68.8929ZM236.85 82.8537C230.995 86.2262 224.501 87.9645 217.316 88.046L217.373 93.0457C225.367 92.955 232.708 91.0094 239.346 87.1863L236.85 82.8537ZM217.169 75.1069C224.226 75.0268 230.049 72.5766 234.36 67.6363L230.593 64.3488C227.335 68.0816 222.934 70.0411 217.112 70.1072L217.169 75.1069ZM234.344 67.6548C238.704 62.757 240.733 56.4138 240.648 48.8787L235.648 48.9355C235.723 55.5062 233.971 60.5532 230.609 64.3303L234.344 67.6548ZM240.648 48.8787C240.562 41.2771 238.393 34.9668 233.904 30.2342L230.277 33.6753C233.702 37.2867 235.573 42.278 235.648 48.9355L240.648 48.8787ZM233.936 30.2687C229.514 25.4275 223.637 23.1101 216.58 23.1902L216.637 28.1899C222.458 28.1238 226.903 29.9829 230.244 33.6408L233.936 30.2687ZM216.58 23.1902C209.47 23.2709 203.582 25.6657 199.189 30.5132L202.893 33.871C206.223 30.1969 210.714 28.2571 216.637 28.1899L216.58 23.1902ZM199.172 30.5315C194.873 35.3698 192.899 41.7622 192.986 49.4196L197.986 49.3629C197.909 42.6079 199.639 37.5342 202.91 33.8527L199.172 30.5315ZM192.986 49.4196C193.072 57.0105 195.195 63.3416 199.584 68.146L203.276 64.7738C199.901 61.0791 198.061 56.031 197.986 49.3629L192.986 49.4196ZM199.616 68.1804C204.119 72.9269 210.059 75.1875 217.169 75.1069L217.112 70.1072C211.19 70.1744 206.656 68.3369 203.244 64.7394L199.616 68.1804ZM322.109 88.5519L320.137 90.0887L320.898 91.0658L322.137 91.0518L322.109 88.5519ZM294.566 53.2122L296.538 51.6754L291.982 45.8299L292.066 53.2406L294.566 53.2122ZM294.97 88.8599L294.999 91.3597L297.499 91.3314L297.47 88.8315L294.97 88.8599ZM275.307 89.083L272.807 89.1114L272.835 91.6112L275.335 91.5829L275.307 89.083ZM274.391 8.35823L274.362 5.8584L271.862 5.88676L271.891 8.3866L274.391 8.35823ZM294.054 8.13509L296.554 8.10672L296.526 5.60688L294.026 5.63525L294.054 8.13509ZM294.456 43.5528L291.956 43.5812L292.041 51.0039L296.464 45.0425L294.456 43.5528ZM320.963 7.82973L320.934 5.32989L319.694 5.34396L318.955 6.34004L320.963 7.82973ZM344.076 7.56743L346.055 9.09567L349.211 5.009L344.048 5.06759L344.076 7.56743ZM313.247 47.4798L311.268 45.9516L310.062 47.513L311.301 49.049L313.247 47.4798ZM346.142 88.2792L346.17 90.779L351.322 90.7206L348.088 86.71L346.142 88.2792ZM324.08 87.0151L296.538 51.6754L292.594 54.749L320.137 90.0887L324.08 87.0151ZM292.066 53.2406L292.471 88.8883L297.47 88.8315L297.066 53.1838L292.066 53.2406ZM294.942 86.3601L275.278 86.5832L275.335 91.5829L294.999 91.3597L294.942 86.3601ZM277.806 89.0547L276.89 8.32987L271.891 8.3866L272.807 89.1114L277.806 89.0547ZM274.419 10.8581L294.083 10.6349L294.026 5.63525L274.362 5.8584L274.419 10.8581ZM291.554 8.16346L291.956 43.5812L296.956 43.5244L296.554 8.10672L291.554 8.16346ZM296.464 45.0425L322.97 9.31943L318.955 6.34004L292.449 42.0631L296.464 45.0425ZM320.991 10.3296L344.104 10.0673L344.048 5.06759L320.934 5.32989L320.991 10.3296ZM342.098 6.0392L311.268 45.9516L315.225 49.0081L346.055 9.09567L342.098 6.0392ZM311.301 49.049L344.196 89.8484L348.088 86.71L315.193 45.9107L311.301 49.049ZM346.114 85.7794L322.08 86.0521L322.137 91.0518L346.17 90.779L346.114 85.7794ZM463.57 86.9466L463.599 89.4464L466.098 89.4181L466.07 86.9182L463.57 86.9466ZM443.906 87.1697L441.836 88.5712L442.59 89.6848L443.935 89.6696L443.906 87.1697ZM410.453 37.7512L412.524 36.3497L407.859 29.459L407.954 37.7795L410.453 37.7512ZM411.019 87.543L411.047 90.0428L413.547 90.0144L413.518 87.5146L411.019 87.543ZM391.355 87.7661L388.855 87.7945L388.883 90.2943L391.383 90.2659L391.355 87.7661ZM390.439 7.0413L390.41 4.54146L387.911 4.56983L387.939 7.06967L390.439 7.0413ZM410.102 6.81816L412.176 5.42112L411.422 4.30302L410.074 4.31832L410.102 6.81816ZM443.558 56.4667L441.485 57.8638L446.153 64.7909L446.058 56.4384L443.558 56.4667ZM442.99 6.44494L442.962 3.9451L440.462 3.97347L440.49 6.47331L442.99 6.44494ZM462.654 6.22179L465.154 6.19342L465.126 3.69358L462.626 3.72195L462.654 6.22179ZM463.542 84.4468L443.878 84.6699L443.935 89.6696L463.599 89.4464L463.542 84.4468ZM445.977 85.7683L412.524 36.3497L408.383 39.1526L441.836 88.5712L445.977 85.7683ZM407.954 37.7795L408.519 87.5713L413.518 87.5146L412.953 37.7228L407.954 37.7795ZM410.99 85.0431L391.326 85.2663L391.383 90.2659L411.047 90.0428L410.99 85.0431ZM393.855 87.7377L392.939 7.01293L387.939 7.06967L388.855 87.7945L393.855 87.7377ZM390.467 9.54114L410.131 9.318L410.074 4.31832L390.41 4.54146L390.467 9.54114ZM408.029 8.2152L441.485 57.8638L445.631 55.0697L412.176 5.42112L408.029 8.2152ZM446.058 56.4384L445.49 6.41657L440.49 6.47331L441.058 56.4951L446.058 56.4384ZM443.019 8.94478L462.682 8.72163L462.626 3.72195L442.962 3.9451L443.019 8.94478ZM460.154 6.25016L461.07 86.975L466.07 86.9182L465.154 6.19342L460.154 6.25016ZM500.771 82.0391L499.573 84.2333L499.585 84.2394L500.771 82.0391ZM485.54 67.491L483.391 68.7671L483.4 68.7825L483.409 68.7977L485.54 67.491ZM485.056 24.8288L482.896 23.5708L482.89 23.5806L482.885 23.5904L485.056 24.8288ZM499.953 9.93879L498.717 7.76601L498.705 7.77245L499.953 9.93879ZM541.696 9.46509L540.497 11.6592L540.509 11.6653L541.696 9.46509ZM556.812 24.0145L554.657 25.2822L554.663 25.2921L554.669 25.3018L556.812 24.0145ZM557.296 66.6767L559.468 67.9152L559.474 67.9037L557.296 66.6767ZM542.514 81.5654L543.762 83.7318L542.514 81.5654ZM536.892 62.538L535.025 60.8758L535.017 60.885L535.009 60.8942L536.892 62.538ZM536.506 28.5002L534.66 30.1863L534.676 30.2037L534.692 30.2207L536.506 28.5002ZM505.457 28.7375L503.605 27.0586L503.596 27.0677L503.588 27.077L505.457 28.7375ZM505.846 63.0053L504 64.6914L504.016 64.7088L504.032 64.7259L505.846 63.0053ZM521.732 84.5915C514.547 84.673 507.972 83.083 501.958 79.8389L499.585 84.2394C506.377 87.9038 513.794 89.6819 521.789 89.5911L521.732 84.5915ZM501.97 79.845C496.033 76.6027 491.275 72.062 487.672 66.1844L483.409 68.7977C487.461 75.4073 492.857 80.5654 499.573 84.2332L501.97 79.845ZM487.69 66.215C484.179 60.2997 482.363 53.6272 482.278 46.1367L477.278 46.1934C477.372 54.4953 479.398 62.04 483.391 68.7671L487.69 66.215ZM482.278 46.1367C482.193 38.6459 483.858 31.9774 487.228 26.0672L482.885 23.5904C479.038 30.3362 477.184 37.8919 477.278 46.1934L482.278 46.1367ZM487.217 26.0867C490.686 20.1288 495.339 15.4814 501.201 12.1051L498.705 7.77245C492.075 11.5918 486.797 16.871 482.896 23.5708L487.217 26.0867ZM501.19 12.1115C507.128 8.73183 513.666 6.993 520.85 6.91146L520.794 1.91179C512.799 2.00251 505.424 3.94845 498.717 7.76604L501.19 12.1115ZM520.85 6.91146C528.035 6.82993 534.567 8.42039 540.497 11.6592L542.894 7.27099C536.172 3.59958 528.788 1.82106 520.794 1.91179L520.85 6.91146ZM540.509 11.6653C546.512 14.9038 551.215 19.4319 554.657 25.2822L558.966 22.7468C555.06 16.1064 549.685 10.9348 542.883 7.26484L540.509 11.6653ZM554.669 25.3018C558.172 31.1341 559.988 37.7631 560.073 45.2539L565.073 45.1971C564.978 36.8956 562.953 29.3839 558.955 22.7271L554.669 25.3018ZM560.073 45.2539C560.158 52.7443 558.493 59.4564 555.118 65.4498L559.474 67.9037C563.313 61.0877 565.167 53.499 565.073 45.1971L560.073 45.2539ZM555.124 65.4384C551.733 71.3848 547.123 76.0255 541.266 79.3991L543.762 83.7318C550.397 79.9098 555.641 74.6248 559.468 67.9151L555.124 65.4384ZM541.266 79.3991C535.411 82.7716 528.916 84.5099 521.732 84.5915L521.789 89.5911C529.783 89.5004 537.124 87.5548 543.762 83.7318L541.266 79.3991ZM521.585 71.6523C528.642 71.5722 534.465 69.1221 538.776 64.1818L535.009 60.8942C531.751 64.627 527.35 66.5866 521.528 66.6526L521.585 71.6523ZM538.76 64.2002C543.12 59.3025 545.149 52.9592 545.064 45.4242L540.064 45.4809C540.139 52.0516 538.387 57.0987 535.025 60.8758L538.76 64.2002ZM545.064 45.4242C544.978 37.8226 542.809 31.5123 538.32 26.7797L534.692 30.2207C538.118 33.8322 539.989 38.8234 540.064 45.4809L545.064 45.4242ZM538.352 26.8141C533.93 21.9729 528.053 19.6555 520.996 19.7356L521.053 24.7353C526.874 24.6692 531.319 26.5284 534.66 30.1863L538.352 26.8141ZM520.996 19.7356C513.886 19.8163 507.998 22.2112 503.605 27.0586L507.309 30.4165C510.639 26.7424 515.13 24.8025 521.053 24.7353L520.996 19.7356ZM503.588 27.077C499.289 31.9153 497.315 38.3077 497.402 45.9651L502.402 45.9083C502.325 39.1533 504.054 34.0796 507.326 30.3981L503.588 27.077ZM497.402 45.9651C497.488 53.556 499.611 59.887 504 64.6914L507.692 61.3192C504.317 57.6245 502.477 52.5765 502.402 45.9083L497.402 45.9651ZM504.032 64.7259C508.535 69.4724 514.475 71.733 521.585 71.6523L521.528 66.6526C515.605 66.7198 511.072 64.8824 507.66 61.2848L504.032 64.7259ZM689.889 3.6431L692.315 4.24624L693.096 1.10654L689.861 1.14326L689.889 3.6431ZM669.762 84.6067L669.79 87.1065L671.722 87.0846L672.188 85.2098L669.762 84.6067ZM645.958 84.8768L643.536 85.4934L644.02 87.399L645.987 87.3767L645.958 84.8768ZM632.476 31.8964L634.899 31.2799L630.045 31.3152L632.476 31.8964ZM619.74 85.1744L619.768 87.6742L621.718 87.6521L622.172 85.7556L619.74 85.1744ZM595.936 85.4445L593.52 86.0864L594.02 87.9664L595.965 87.9443L595.936 85.4445ZM574.552 4.95196L574.523 2.45212L571.311 2.48858L572.136 5.59388L574.552 4.95196ZM595.595 4.71316L598.042 4.20061L597.621 2.19001L595.567 2.21332L595.595 4.71316ZM607.876 63.3426L605.43 63.8551L610.311 63.909L607.876 63.3426ZM621.584 4.41824L621.555 1.9184L619.593 1.94066L619.149 3.8518L621.584 4.41824ZM643.202 4.17291L645.629 3.57379L645.155 1.65059L643.174 1.67307L643.202 4.17291ZM657.668 62.7775L655.241 63.3766L660.125 63.239L657.668 62.7775ZM668.731 3.88321L668.702 1.38337L666.652 1.40663L666.274 3.42169L668.731 3.88321ZM687.463 3.03995L667.336 84.0036L672.188 85.2098L692.315 4.24624L687.463 3.03995ZM669.733 82.1069L645.93 82.377L645.987 87.3767L669.79 87.1065L669.733 82.1069ZM648.381 84.2603L634.899 31.2799L630.053 32.5129L643.536 85.4934L648.381 84.2603ZM630.045 31.3152L617.309 84.5931L622.172 85.7556L634.908 32.4777L630.045 31.3152ZM619.712 82.6745L595.908 82.9446L595.965 87.9443L619.768 87.6742L619.712 82.6745ZM598.353 84.8026L576.968 4.31005L572.136 5.59388L593.52 86.0864L598.353 84.8026ZM574.58 7.4518L595.624 7.21299L595.567 2.21332L574.523 2.45212L574.58 7.4518ZM593.149 5.22571L605.43 63.8551L610.323 62.83L598.042 4.20061L593.149 5.22571ZM610.311 63.909L624.019 4.98467L619.149 3.8518L605.442 62.7761L610.311 63.909ZM621.612 6.91808L643.231 6.67274L643.174 1.67307L621.555 1.9184L621.612 6.91808ZM640.775 4.77202L655.241 63.3766L660.095 62.1784L645.629 3.57379L640.775 4.77202ZM660.125 63.239L671.188 4.34472L666.274 3.42169L655.211 62.316L660.125 63.239ZM668.759 6.38305L689.918 6.14293L689.861 1.14326L668.702 1.38337L668.759 6.38305ZM731.341 0.297504L733.84 0.373448L733.919 -2.23191L731.313 -2.20233L731.341 0.297504ZM729.666 55.4051L729.695 57.9049L732.092 57.8777L732.165 55.481L729.666 55.4051ZM712.993 55.5943L710.496 55.7269L710.623 58.1213L713.021 58.0941L712.993 55.5943ZM710.068 0.538921L710.039 -1.96092L707.433 -1.93134L707.571 0.671551L710.068 0.538921ZM713.408 82.0413L711.693 83.8605L711.726 83.8916L711.76 83.9215L713.408 82.0413ZM713.234 66.7473L711.51 64.937L711.494 64.9521L711.478 64.9675L713.234 66.7473ZM730.023 66.5567L728.308 68.3759L728.324 68.3909L728.34 68.4057L730.023 66.5567ZM730.197 81.8508L731.918 83.6633L731.921 83.661L730.197 81.8508ZM728.842 0.221561L727.168 55.3291L732.165 55.481L733.84 0.373448L728.842 0.221561ZM729.638 52.9052L712.964 53.0944L713.021 58.0941L729.695 57.9049L729.638 52.9052ZM715.489 55.4616L712.564 0.406289L707.571 0.671551L710.496 55.7269L715.489 55.4616ZM710.096 3.03876L731.37 2.79734L731.313 -2.20233L710.039 -1.96092L710.096 3.03876ZM721.923 82.4347C718.987 82.468 716.766 81.6605 715.055 80.161L711.76 83.9215C714.54 86.358 718.016 87.4793 721.979 87.4344L721.923 82.4347ZM715.122 80.2221C713.448 78.6436 712.628 76.773 712.602 74.4599L707.602 74.5167C707.643 78.1832 709.027 81.348 711.693 83.8605L715.122 80.2221ZM712.602 74.4599C712.574 72.0506 713.365 70.1296 714.99 68.5271L711.478 64.9675C708.857 67.5534 707.56 70.7931 707.602 74.5167L712.602 74.4599ZM714.958 68.5575C716.637 66.9582 718.827 66.0788 721.737 66.0457L721.68 61.0461C717.69 61.0913 714.23 62.3461 711.51 64.937L714.958 68.5575ZM721.737 66.0457C724.554 66.0138 726.672 66.8338 728.308 68.3759L731.738 64.7375C729.034 62.1887 725.608 61.0015 721.68 61.0461L721.737 66.0457ZM728.34 68.4057C730.068 69.9782 730.918 71.8718 730.945 74.2518L735.945 74.195C735.902 70.4421 734.471 67.2246 731.706 64.7078L728.34 68.4057ZM730.945 74.2518C730.971 76.5351 730.179 78.4153 728.472 80.0405L731.921 83.661C734.614 81.096 735.987 77.8913 735.945 74.195L730.945 74.2518ZM728.475 80.0382C726.878 81.5554 724.767 82.4024 721.923 82.4347L721.979 87.4344C725.881 87.3901 729.268 86.1813 731.918 83.6633L728.475 80.0382Z" fill="#FFE7E1"/>
</svg>
