<svg width="50" height="50" viewBox="0 0 50 50" fill="none" xmlns="http://www.w3.org/2000/svg">
<g clip-path="url(#clip0_155_171)">
<path d="M38.0323 0H11.6371C5.2058 0 -0.0078125 5.24666 -0.0078125 11.7188V38.2812C-0.0078125 44.7533 5.2058 50 11.6371 50H38.0323C44.4636 50 49.6772 44.7533 49.6772 38.2812V11.7188C49.6772 5.24666 44.4636 0 38.0323 0Z" fill="white"/>
<path d="M38.0323 0H11.6371C5.2058 0 -0.0078125 5.24666 -0.0078125 11.7188V38.2812C-0.0078125 44.7533 5.2058 50 11.6371 50H38.0323C44.4636 50 49.6772 44.7533 49.6772 38.2812V11.7188C49.6772 5.24666 44.4636 0 38.0323 0Z" fill="#0A66C2"/>
<path d="M35.8422 42.5166H41.523C41.7288 42.5166 41.9263 42.4343 42.0719 42.2878C42.2174 42.1414 42.2993 41.9427 42.2993 41.7355L42.3022 29.657C42.3022 23.3439 40.9504 18.4914 33.6194 18.4914C30.8325 18.3871 28.2045 19.8328 26.7863 22.2469C26.7794 22.2586 26.7688 22.2677 26.7563 22.2728C26.7437 22.278 26.7298 22.2788 26.7167 22.2752C26.7036 22.2717 26.6921 22.2639 26.6838 22.2531C26.6755 22.2423 26.671 22.2291 26.6708 22.2154V19.8555C26.6708 19.6483 26.5891 19.4496 26.4435 19.303C26.2979 19.1565 26.1004 19.0742 25.8945 19.0742H20.5035C20.2976 19.0742 20.1001 19.1565 19.9545 19.303C19.809 19.4496 19.7272 19.6483 19.7272 19.8555V41.7344C19.7272 41.9416 19.809 42.1403 19.9545 42.2868C20.1001 42.4333 20.2976 42.5156 20.5035 42.5156H26.1839C26.3898 42.5156 26.5873 42.4333 26.7328 42.2868C26.8784 42.1403 26.9602 41.9416 26.9602 41.7344V30.9193C26.9602 27.8613 27.5366 24.8998 31.304 24.8998C35.0177 24.8998 35.0659 28.399 35.0659 31.1174V41.7354C35.0659 41.9426 35.1477 42.1413 35.2932 42.2878C35.4388 42.4343 35.6363 42.5166 35.8422 42.5166ZM7.36743 11.6461C7.36743 13.9633 9.26303 15.8699 11.5658 15.8699C13.868 15.8697 15.7625 13.9619 15.7625 11.6451C15.7621 9.32832 13.8674 7.42188 11.565 7.42188C9.26206 7.42188 7.36743 9.32891 7.36743 11.6461ZM8.71805 42.5166H14.406C14.6119 42.5166 14.8094 42.4343 14.955 42.2878C15.1006 42.1413 15.1823 41.9426 15.1823 41.7354V19.8555C15.1823 19.6483 15.1006 19.4496 14.955 19.303C14.8094 19.1565 14.6119 19.0742 14.406 19.0742H8.71805C8.51215 19.0742 8.31469 19.1565 8.1691 19.303C8.02351 19.4496 7.94172 19.6483 7.94172 19.8555V41.7354C7.94172 41.9426 8.02351 42.1413 8.1691 42.2878C8.31469 42.4343 8.51215 42.5166 8.71805 42.5166Z" fill="white"/>
</g>
<defs>
<clipPath id="clip0_155_171">
<rect width="49.685" height="50" fill="white" transform="translate(-0.0078125)"/>
</clipPath>
</defs>
</svg>
