<svg width="51" height="50" viewBox="0 0 51 50" fill="none" xmlns="http://www.w3.org/2000/svg">
<g clip-path="url(#clip0_155_178)">
<path d="M50.1811 25C50.1811 11.193 39.0587 0 25.3386 0C11.6186 0 0.496094 11.193 0.496094 25C0.496094 37.4781 9.58069 47.8209 21.457 49.6963V32.2266H15.1493V25H21.457V19.4922C21.457 13.2266 25.1659 9.76563 30.8405 9.76563C33.5584 9.76563 36.4013 10.2539 36.4013 10.2539V16.4063H33.2688C30.1827 16.4063 29.2203 18.3334 29.2203 20.3105V25H36.1102L35.0088 32.2266H29.2203V49.6963C41.0965 47.8209 50.1811 37.4783 50.1811 25Z" fill="#1877F2"/>
<path d="M35.0089 32.2266L36.1103 25H29.2204V20.3105C29.2204 18.3332 30.1828 16.4062 33.2689 16.4062H36.4014V10.2539C36.4014 10.2539 33.5585 9.76562 30.8404 9.76562C25.166 9.76562 21.4571 13.2266 21.4571 19.4922V25H15.1494V32.2266H21.4571V49.6963C22.7412 49.8988 24.039 50.0003 25.3387 50C26.6385 50.0004 27.9363 49.8988 29.2204 49.6963V32.2266H35.0089Z" fill="white"/>
</g>
<defs>
<clipPath id="clip0_155_178">
<rect width="49.685" height="50" fill="white" transform="translate(0.496094)"/>
</clipPath>
</defs>
</svg>
