<svg width="215" height="361" viewBox="0 0 215 361" fill="none" xmlns="http://www.w3.org/2000/svg">
<path d="M160.756 13.173C168.813 -3.22181 192.187 -3.22181 200.244 13.173L205.387 23.6372C211.26 35.5865 226.318 39.6212 237.378 32.2093L247.064 25.7185C262.24 15.549 282.482 27.2355 281.263 45.4627L280.484 57.0964C279.596 70.3812 290.619 81.4043 303.904 80.5157L315.537 79.7375C333.764 78.5183 345.451 98.7599 335.282 113.935L328.791 123.622C321.379 134.682 325.414 149.74 337.363 155.613L347.827 160.756C364.222 168.814 364.222 192.187 347.827 200.244L337.363 205.387C325.414 211.26 321.379 226.318 328.791 237.378L335.282 247.065C345.451 262.24 333.764 282.482 315.537 281.263L303.904 280.484C290.619 279.596 279.596 290.619 280.484 303.904L281.263 315.537C282.482 333.764 262.24 345.451 247.065 335.282L237.378 328.791C226.318 321.379 211.26 325.414 205.387 337.363L200.244 347.827C192.186 364.222 168.813 364.222 160.756 347.827L155.613 337.363C149.74 325.414 134.682 321.379 123.622 328.791L113.935 335.282C98.7599 345.451 78.5183 333.764 79.7375 315.537L80.5157 303.904C81.4043 290.619 70.3812 279.596 57.0964 280.484L45.4627 281.263C27.2355 282.482 15.549 262.24 25.7185 247.064L32.2093 237.378C39.6212 226.318 35.5865 211.26 23.6372 205.387L13.173 200.244C-3.22181 192.187 -3.22181 168.813 13.173 160.756L23.6372 155.613C35.5865 149.74 39.6212 134.682 32.2093 123.622L25.7185 113.936C15.549 98.7599 27.2355 78.5183 45.4627 79.7375L57.0964 80.5157C70.3812 81.4043 81.4043 70.3812 80.5157 57.0964L79.7375 45.4627C78.5183 27.2355 98.7599 15.549 113.936 25.7185L123.622 32.2093C134.682 39.6212 149.74 35.5865 155.613 23.6372L160.756 13.173Z" fill="#EFC0AE" fill-opacity="0.25"/>
</svg>
