<svg width="210" height="305" viewBox="0 0 210 305" fill="none" xmlns="http://www.w3.org/2000/svg">
<circle cx="3.5" cy="14.5" r="14.5" fill="#DF9A7B" fill-opacity="0.5"/>
<circle cx="3.5" cy="55.5" r="14.5" fill="#DF9A7B" fill-opacity="0.5"/>
<ellipse cx="3.5" cy="96" rx="14.5" ry="14" fill="#DF9A7B" fill-opacity="0.5"/>
<circle cx="3.5" cy="136.5" r="14.5" fill="#DF9A7B" fill-opacity="0.5"/>
<circle cx="3.5" cy="177.5" r="14.5" fill="#DF9A7B" fill-opacity="0.5"/>
<circle cx="41.5" cy="14.5" r="14.5" fill="#DF9A7B" fill-opacity="0.5"/>
<circle cx="41.5" cy="55.5" r="14.5" fill="#DF9A7B" fill-opacity="0.5"/>
<ellipse cx="41.5" cy="96" rx="14.5" ry="14" fill="#DF9A7B" fill-opacity="0.5"/>
<circle cx="41.5" cy="136.5" r="14.5" fill="#DF9A7B" fill-opacity="0.5"/>
<circle cx="41.5" cy="177.5" r="14.5" fill="#DF9A7B" fill-opacity="0.5"/>
<circle cx="80.5" cy="14.5" r="14.5" fill="#DF9A7B" fill-opacity="0.5"/>
<circle cx="80.5" cy="55.5" r="14.5" fill="#DF9A7B" fill-opacity="0.5"/>
<ellipse cx="80.5" cy="96" rx="14.5" ry="14" fill="#DF9A7B" fill-opacity="0.5"/>
<circle cx="80.5" cy="136.5" r="14.5" fill="#DF9A7B" fill-opacity="0.5"/>
<circle cx="80.5" cy="177.5" r="14.5" fill="#DF9A7B" fill-opacity="0.5"/>
<circle cx="118.5" cy="14.5" r="14.5" fill="#DF9A7B" fill-opacity="0.5"/>
<circle cx="118.5" cy="55.5" r="14.5" fill="#DF9A7B" fill-opacity="0.5"/>
<ellipse cx="118.5" cy="96" rx="14.5" ry="14" fill="#DF9A7B" fill-opacity="0.5"/>
<circle cx="118.5" cy="136.5" r="14.5" fill="#DF9A7B" fill-opacity="0.5"/>
<circle cx="118.5" cy="177.5" r="14.5" fill="#DF9A7B" fill-opacity="0.5"/>
<circle cx="157.5" cy="14.5" r="14.5" fill="#DF9A7B" fill-opacity="0.5"/>
<circle cx="157.5" cy="55.5" r="14.5" fill="#DF9A7B" fill-opacity="0.5"/>
<ellipse cx="157.5" cy="96" rx="14.5" ry="14" fill="#DF9A7B" fill-opacity="0.5"/>
<circle cx="157.5" cy="136.5" r="14.5" fill="#DF9A7B" fill-opacity="0.5"/>
<circle cx="157.5" cy="177.5" r="14.5" fill="#DF9A7B" fill-opacity="0.5"/>
<circle cx="195.5" cy="14.5" r="14.5" fill="#DF9A7B" fill-opacity="0.5"/>
<circle cx="195.5" cy="55.5" r="14.5" fill="#DF9A7B" fill-opacity="0.5"/>
<ellipse cx="195.5" cy="96" rx="14.5" ry="14" fill="#DF9A7B" fill-opacity="0.5"/>
<circle cx="195.5" cy="136.5" r="14.5" fill="#DF9A7B" fill-opacity="0.5"/>
<circle cx="195.5" cy="177.5" r="14.5" fill="#DF9A7B" fill-opacity="0.5"/>
</svg>
