<svg width="50" height="50" viewBox="0 0 50 50" fill="none" xmlns="http://www.w3.org/2000/svg">
<g clip-path="url(#clip0_155_181)">
<path d="M38.0401 0H11.6449C5.21361 0 0 5.24666 0 11.7188V38.2812C0 44.7533 5.21361 50 11.6449 50H38.0401C44.4714 50 49.685 44.7533 49.685 38.2812V11.7188C49.685 5.24666 44.4714 0 38.0401 0Z" fill="url(#paint0_radial_155_181)"/>
<path d="M38.0401 0H11.6449C5.21361 0 0 5.24666 0 11.7188V38.2812C0 44.7533 5.21361 50 11.6449 50H38.0401C44.4714 50 49.685 44.7533 49.685 38.2812V11.7188C49.685 5.24666 44.4714 0 38.0401 0Z" fill="url(#paint1_radial_155_181)"/>
<path d="M24.8443 5.46875C19.5734 5.46875 18.9118 5.49199 16.8417 5.58672C14.7755 5.68203 13.3651 6.01113 12.1311 6.49414C10.8545 6.99297 9.77168 7.66035 8.69297 8.74629C7.61329 9.83203 6.95011 10.9217 6.45287 12.2059C5.97155 13.448 5.64413 14.868 5.55116 16.9463C5.45859 19.0297 5.43433 19.6957 5.43433 25.0002C5.43433 30.3047 5.45762 30.9684 5.55155 33.0516C5.64665 35.1309 5.97368 36.5502 6.45326 37.792C6.94933 39.0768 7.61251 40.1664 8.69161 41.252C9.77012 42.3385 10.8529 43.0074 12.1286 43.5062C13.3636 43.9893 14.7741 44.3184 16.84 44.4137C18.9102 44.5084 19.5713 44.5316 24.842 44.5316C30.1134 44.5316 30.7729 44.5084 32.843 44.4137C34.9092 44.3184 36.3211 43.9893 37.5561 43.5062C38.8322 43.0074 39.9134 42.3385 40.9917 41.252C42.0714 40.1664 42.7344 39.0768 43.2318 37.7926C43.7089 36.5502 44.0365 35.1305 44.1335 33.052C44.2265 30.9688 44.2508 30.3047 44.2508 25.0002C44.2508 19.6957 44.2265 19.0301 44.1335 16.9467C44.0365 14.8674 43.7089 13.4482 43.2318 12.2064C42.7344 10.9217 42.0714 9.83203 40.9917 8.74629C39.9123 7.65996 38.8326 6.99258 37.5549 6.49434C36.3177 6.01113 34.9065 5.68184 32.8403 5.58672C30.77 5.49199 30.1109 5.46875 24.8383 5.46875H24.8443ZM23.1032 8.98848C23.62 8.9877 24.1966 8.98848 24.8443 8.98848C30.0265 8.98848 30.6406 9.00723 32.687 9.10078C34.5793 9.18789 35.6063 9.50605 36.2905 9.77344C37.1963 10.1273 37.842 10.5506 38.5209 11.2344C39.2002 11.918 39.6205 12.5689 39.9732 13.4805C40.2389 14.168 40.5554 15.2016 40.6416 17.1059C40.7346 19.1648 40.7548 19.7832 40.7548 24.9957C40.7548 30.2082 40.7346 30.8268 40.6416 32.8855C40.555 34.7898 40.2389 35.8234 39.9732 36.5111C39.6215 37.4227 39.2002 38.0717 38.5209 38.7549C37.8416 39.4385 37.1967 39.8615 36.2905 40.2156C35.6071 40.4842 34.5793 40.8016 32.687 40.8887C30.6409 40.9822 30.0265 41.0025 24.8443 41.0025C19.6619 41.0025 19.0476 40.9822 17.0018 40.8887C15.1095 40.8008 14.0824 40.4826 13.3977 40.2152C12.4921 39.8611 11.8451 39.4381 11.1658 38.7545C10.4865 38.0709 10.0661 37.4215 9.71345 36.5096C9.44775 35.8219 9.1312 34.7883 9.04503 32.884C8.95207 30.825 8.93343 30.2066 8.93343 24.9908C8.93343 19.7752 8.95207 19.16 9.04503 17.101C9.13159 15.1967 9.44775 14.1631 9.71345 13.4746C10.0653 12.5631 10.4865 11.9121 11.166 11.2285C11.8452 10.5449 12.4921 10.1217 13.3979 9.76699C14.082 9.49844 15.1095 9.18105 17.0018 9.09355C18.7922 9.01211 19.4861 8.98769 23.1032 8.98359V8.98848ZM35.2044 12.2314C33.9186 12.2314 32.8754 13.2803 32.8754 14.5744C32.8754 15.8684 33.9186 16.9182 35.2044 16.9182C36.4902 16.9182 37.5334 15.8684 37.5334 14.5744C37.5334 13.2805 36.4902 12.2307 35.2044 12.2307V12.2314ZM24.8443 14.9699C19.3401 14.9699 14.8774 19.4609 14.8774 25.0002C14.8774 30.5395 19.3401 35.0283 24.8443 35.0283C30.3487 35.0283 34.8098 30.5395 34.8098 25.0002C34.8098 19.4611 30.3483 14.9699 24.8439 14.9699H24.8443ZM24.8443 18.4896C28.4172 18.4896 31.3138 21.4043 31.3138 25.0002C31.3138 28.5957 28.4172 31.5107 24.8443 31.5107C21.2712 31.5107 18.375 28.5957 18.375 25.0002C18.375 21.4043 21.2712 18.4896 24.8443 18.4896Z" fill="white"/>
</g>
<defs>
<radialGradient id="paint0_radial_155_181" cx="0" cy="0" r="1" gradientUnits="userSpaceOnUse" gradientTransform="translate(13.1976 53.851) rotate(-90) scale(49.5537 45.7985)">
<stop stop-color="#FFDD55"/>
<stop offset="0.1" stop-color="#FFDD55"/>
<stop offset="0.5" stop-color="#FF543E"/>
<stop offset="1" stop-color="#C837AB"/>
</radialGradient>
<radialGradient id="paint1_radial_155_181" cx="0" cy="0" r="1" gradientUnits="userSpaceOnUse" gradientTransform="translate(-8.32244 3.60176) rotate(78.7505) scale(22.1454 90.753)">
<stop stop-color="#3771C8"/>
<stop offset="0.128" stop-color="#3771C8"/>
<stop offset="1" stop-color="#6600FF" stop-opacity="0"/>
</radialGradient>
<clipPath id="clip0_155_181">
<rect width="49.685" height="50" fill="white"/>
</clipPath>
</defs>
</svg>
