<svg width="1012" height="204" viewBox="0 0 1012 204" fill="none" xmlns="http://www.w3.org/2000/svg">
<path d="M212.86 95.2388C217.548 96.1823 221.331 98.4779 224.209 102.125C227.086 105.696 228.552 109.82 228.605 114.496C228.681 121.243 226.366 126.636 221.658 130.676C217.026 134.639 210.493 136.668 202.061 136.764L164.458 137.191L163.542 56.4659L199.88 56.0535C208.082 55.9605 214.505 57.766 219.147 61.4702C223.866 65.1736 226.262 70.2451 226.335 76.6847C226.389 81.4377 225.169 85.4001 222.675 88.572C220.258 91.7429 216.986 93.9652 212.86 95.2388ZM183.576 88.9007L196.455 88.7545C199.675 88.718 202.121 88.0002 203.791 86.6011C205.538 85.1245 206.396 83.0063 206.365 80.2465C206.333 77.4867 205.428 75.3885 203.648 73.9519C201.945 72.5145 199.483 71.8141 196.264 71.8506L183.384 71.9967L183.576 88.9007ZM198.431 120.934C201.727 120.897 204.249 120.14 205.995 118.663C207.818 117.109 208.713 114.914 208.681 112.077C208.649 109.241 207.665 107.028 205.73 105.44C203.872 103.851 201.295 103.076 197.998 103.113L183.739 103.275L183.942 121.099L198.431 120.934ZM284.195 136.637C276.606 136.723 269.609 135.039 263.206 131.585C256.88 128.13 251.803 123.28 247.975 117.037C244.223 110.716 242.303 103.607 242.213 95.7107C242.123 87.8146 243.883 80.7025 247.491 74.3745C251.176 68.0456 256.142 63.0822 262.388 59.4845C268.711 55.8858 275.667 54.0434 283.257 53.9573C290.846 53.8712 297.804 55.5557 304.131 59.0108C310.533 62.465 315.572 67.3148 319.247 73.5602C322.998 79.8047 324.918 86.875 325.008 94.7712C325.097 102.667 323.338 109.818 319.731 116.222C316.122 122.55 311.195 127.513 304.949 131.111C298.703 134.709 291.785 136.551 284.195 136.637ZM283.992 118.698C290.431 118.625 295.543 116.42 299.327 112.084C303.189 107.746 305.079 102.051 304.999 94.9982C304.918 87.8687 302.899 82.2179 298.941 78.0459C295.059 73.7963 289.899 71.7081 283.459 71.7811C276.943 71.8551 271.754 74.0224 267.892 78.2832C264.107 82.5431 262.255 88.2762 262.337 95.4824C262.418 102.612 264.399 108.301 268.281 112.551C272.238 116.723 277.475 118.772 283.992 118.698ZM380.344 135.546C372.755 135.632 365.758 133.948 359.356 130.494C353.029 127.039 347.952 122.189 344.124 115.946C340.372 109.624 338.452 102.516 338.362 94.6196C338.272 86.7235 340.032 79.6114 343.64 73.2833C347.325 66.9545 352.291 61.9911 358.537 58.3933C364.86 54.7947 371.816 52.9523 379.406 52.8662C386.995 52.7801 393.953 54.4645 400.28 57.9196C406.683 61.3739 411.721 66.2237 415.396 72.469C419.147 78.7136 421.067 85.7839 421.157 93.68C421.246 101.576 419.487 108.727 415.88 115.131C412.271 121.459 407.344 126.422 401.098 130.02C394.852 133.618 387.934 135.46 380.344 135.546ZM380.141 117.607C386.58 117.534 391.692 115.329 395.477 110.993C399.338 106.655 401.228 100.96 401.148 93.9071C401.067 86.7776 399.048 81.1268 395.09 76.9548C391.208 72.7052 386.048 70.617 379.608 70.69C373.092 70.764 367.903 72.9313 364.041 77.1921C360.256 81.452 358.404 87.185 358.486 94.3912C358.567 101.521 360.548 107.21 364.43 111.46C368.387 115.632 373.624 117.681 380.141 117.607ZM485.109 133.552L457.566 98.2122L457.97 133.86L438.307 134.083L437.391 53.3582L457.054 53.1351L457.456 88.5528L483.963 52.8297L507.076 52.5674L476.247 92.4798L509.142 133.279L485.109 133.552ZM626.57 131.947L606.906 132.17L573.453 82.7512L574.019 132.543L554.355 132.766L553.439 52.0413L573.102 51.8182L606.558 101.467L605.99 51.4449L625.654 51.2218L626.57 131.947ZM684.76 132.091C677.171 132.177 670.174 130.493 663.771 127.039C657.445 123.584 652.368 118.735 648.54 112.491C644.788 106.17 642.868 99.0612 642.778 91.1651C642.688 83.2689 644.448 76.1568 648.056 69.8288C651.741 63.4999 656.707 58.5366 662.953 54.9388C669.276 51.3401 676.232 49.4978 683.822 49.4116C691.411 49.3255 698.369 51.01 704.696 54.4651C711.099 57.9193 716.137 62.7691 719.812 69.0145C723.563 75.259 725.483 82.3293 725.573 90.2255C725.662 98.1216 723.903 105.272 720.296 111.677C716.687 118.005 711.76 122.968 705.514 126.565C699.268 130.163 692.35 132.005 684.76 132.091ZM684.557 114.152C690.996 114.079 696.108 111.875 699.893 107.538C703.754 103.201 705.644 97.5054 705.564 90.4525C705.483 83.323 703.464 77.6722 699.506 73.5002C695.624 69.2506 690.464 67.1624 684.024 67.2355C677.508 67.3094 672.319 69.4768 668.457 73.7375C664.672 77.9974 662.82 83.7305 662.902 90.9367C662.983 98.0662 664.964 103.756 668.846 108.005C672.803 112.177 678.04 114.226 684.557 114.152ZM852.889 48.6431L832.762 129.607L808.958 129.877L795.476 76.8964L782.74 130.174L758.937 130.444L737.552 49.952L758.595 49.7132L770.876 108.343L784.584 49.4182L806.202 49.1729L820.668 107.778L831.731 48.8832L852.889 48.6431ZM894.341 45.2975L892.666 100.405L875.992 100.594L873.068 45.5389L894.341 45.2975ZM884.951 129.935C881.501 129.974 878.653 129.009 876.408 127.041C874.238 124.996 873.136 122.478 873.102 119.488C873.067 116.422 874.111 113.841 876.234 111.747C878.434 109.652 881.258 108.585 884.708 108.546C888.081 108.508 890.853 109.511 893.023 111.557C895.27 113.601 896.41 116.157 896.445 119.223C896.479 122.213 895.396 124.756 893.197 126.851C891.073 128.868 888.324 129.896 884.951 129.935Z" fill="#FCCF31"/>
<path d="M212.86 97.2388L212.123 94.85L212.367 99.6896L212.86 97.2388ZM224.209 104.125L222.246 105.674L222.254 105.684L222.262 105.694L224.209 104.125ZM221.658 132.676L223.283 134.576L223.286 134.573L221.658 132.676ZM164.458 139.191L161.958 139.219L161.987 141.719L164.486 141.691L164.458 139.191ZM163.542 58.4659L163.514 55.9661L161.014 55.9944L161.042 58.4943L163.542 58.4659ZM219.147 63.4702L217.588 65.4244L217.596 65.4307L217.604 65.4369L219.147 63.4702ZM222.675 90.572L220.71 89.0266L220.698 89.0414L220.687 89.0563L222.675 90.572ZM183.576 90.9007L181.076 90.929L181.105 93.4289L183.605 93.4005L183.576 90.9007ZM203.791 88.6011L205.396 90.5179L205.405 90.5103L203.791 88.6011ZM203.648 75.9519L202.035 77.8624L202.056 77.8801L202.078 77.8973L203.648 75.9519ZM183.384 73.9967L183.356 71.4969L180.856 71.5253L180.885 74.0251L183.384 73.9967ZM205.995 120.663L207.609 122.572L207.618 122.565L205.995 120.663ZM205.73 107.44L204.106 109.34L204.125 109.357L204.144 109.373L205.73 107.44ZM183.739 105.275L183.711 102.775L181.211 102.803L181.24 105.303L183.739 105.275ZM183.942 123.099L181.442 123.127L181.47 125.627L183.97 125.598L183.942 123.099ZM212.367 99.6896C216.492 100.52 219.747 102.507 222.246 105.674L226.172 102.577C222.915 98.4492 218.604 95.8447 213.353 94.7879L212.367 99.6896ZM222.262 105.694C224.78 108.819 226.058 112.397 226.105 116.525L231.104 116.468C231.045 111.243 229.392 106.574 226.156 102.557L222.262 105.694ZM226.105 116.525C226.174 122.605 224.123 127.266 220.03 130.779L223.286 134.573C228.608 130.006 231.189 123.88 231.104 116.468L226.105 116.525ZM220.033 130.777C215.99 134.235 210.102 136.173 202.032 136.264L202.089 141.264C210.885 141.164 218.061 139.043 223.283 134.576L220.033 130.777ZM202.032 136.264L164.43 136.691L164.486 141.691L202.089 141.264L202.032 136.264ZM166.958 139.162L166.042 58.4375L161.042 58.4943L161.958 139.219L166.958 139.162ZM163.57 60.9657L199.908 60.5534L199.851 55.5537L163.514 55.9661L163.57 60.9657ZM199.908 60.5534C207.752 60.4644 213.541 62.1953 217.588 65.4244L220.707 61.5161C215.469 57.3367 208.413 55.4565 199.851 55.5537L199.908 60.5534ZM217.604 65.4369C221.678 68.6344 223.77 72.9671 223.836 78.713L228.835 78.6563C228.754 71.523 226.054 65.7128 220.691 61.5036L217.604 65.4369ZM223.836 78.713C223.884 83.0018 222.791 86.3798 220.71 89.0266L224.64 92.1173C227.547 88.4205 228.894 83.8736 228.835 78.6563L223.836 78.713ZM220.687 89.0563C218.612 91.7782 215.794 93.7166 212.123 94.85L213.597 99.6276C218.177 98.2138 221.903 95.7076 224.663 92.0877L220.687 89.0563ZM183.605 93.4005L196.484 93.2543L196.427 88.2547L183.548 88.4008L183.605 93.4005ZM196.484 93.2543C200.014 93.2143 203.115 92.4284 205.396 90.5179L202.187 86.6843C201.126 87.5719 199.336 88.2217 196.427 88.2547L196.484 93.2543ZM205.405 90.5103C207.84 88.4524 208.902 85.5536 208.864 82.2181L203.865 82.2749C203.89 84.4591 203.237 85.7967 202.178 86.6919L205.405 90.5103ZM208.864 82.2181C208.827 78.8827 207.699 76.0088 205.218 74.0066L202.078 77.8973C203.157 78.7682 203.84 80.0907 203.865 82.2749L208.864 82.2181ZM205.26 74.0415C202.932 72.0762 199.793 71.3104 196.235 71.3508L196.292 76.3504C199.174 76.3177 200.958 76.9528 202.035 77.8624L205.26 74.0415ZM196.235 71.3508L183.356 71.4969L183.413 76.4966L196.292 76.3504L196.235 71.3508ZM180.885 74.0251L181.076 90.929L186.076 90.8723L185.884 73.9684L180.885 74.0251ZM198.459 125.434C202.086 125.393 205.259 124.559 207.609 122.572L204.381 118.754C203.238 119.72 201.368 120.401 198.402 120.434L198.459 125.434ZM207.618 122.565C210.111 120.44 211.22 117.476 211.181 114.049L206.181 114.106C206.207 116.352 205.525 117.779 204.373 118.761L207.618 122.565ZM211.181 114.049C211.141 110.584 209.902 107.63 207.317 105.508L204.144 109.373C205.428 110.427 206.156 111.897 206.181 114.106L211.181 114.049ZM207.355 105.54C204.897 103.439 201.659 102.571 197.97 102.613L198.027 107.613C200.931 107.58 202.847 108.264 204.106 109.34L207.355 105.54ZM197.97 102.613L183.711 102.775L183.768 107.775L198.027 107.613L197.97 102.613ZM181.24 105.303L181.442 123.127L186.442 123.07L186.239 105.246L181.24 105.303ZM183.97 125.598L198.459 125.434L198.402 120.434L183.913 120.599L183.97 125.598ZM263.206 133.585L262.008 135.779L262.019 135.785L263.206 133.585ZM247.975 119.037L245.826 120.313L245.835 120.328L245.844 120.343L247.975 119.037ZM247.491 76.3745L245.331 75.1165L245.325 75.1263L245.32 75.1361L247.491 76.3745ZM262.388 61.4845L261.152 59.3117L261.14 59.3181L262.388 61.4845ZM304.131 61.0108L302.932 63.2049L302.944 63.211L304.131 61.0108ZM319.247 75.5602L317.092 76.8279L317.098 76.8377L317.104 76.8475L319.247 75.5602ZM319.731 118.222L321.903 119.461L321.909 119.449L319.731 118.222ZM304.949 133.111L306.197 135.277L306.197 135.277L304.949 133.111ZM299.327 114.084L297.46 112.421L297.452 112.431L297.444 112.44L299.327 114.084ZM298.941 80.0459L297.095 81.732L297.111 81.7493L297.127 81.7664L298.941 80.0459ZM267.892 80.2832L266.04 78.6043L266.031 78.6134L266.023 78.6226L267.892 80.2832ZM268.281 114.551L266.435 116.237L266.451 116.254L266.467 116.272L268.281 114.551ZM284.167 136.137C276.982 136.219 270.407 134.629 264.393 131.385L262.019 135.785C268.812 139.449 276.229 141.228 284.223 141.137L284.167 136.137ZM264.405 131.391C258.468 128.148 253.71 123.608 250.107 117.73L245.844 120.343C249.896 126.953 255.292 132.111 262.008 135.779L264.405 131.391ZM250.125 117.761C246.614 111.845 244.798 105.173 244.713 97.6824L239.713 97.7391C239.807 106.041 241.833 113.586 245.826 120.313L250.125 117.761ZM244.713 97.6824C244.628 90.1916 246.293 83.5231 249.663 77.6128L245.32 75.1361C241.473 81.8819 239.619 89.4376 239.713 97.7391L244.713 97.6824ZM249.652 77.6324C253.121 71.6745 257.774 67.027 263.636 63.6508L261.14 59.3181C254.51 63.1374 249.232 68.4166 245.331 75.1165L249.652 77.6324ZM263.625 63.6572C269.563 60.2775 276.101 58.5387 283.285 58.4571L283.228 53.4575C275.234 53.5482 267.859 55.4941 261.152 59.3117L263.625 63.6572ZM283.285 58.4571C290.47 58.3756 297.002 59.9661 302.932 63.2049L305.329 58.8167C298.607 55.1452 291.223 53.3667 283.228 53.4575L283.285 58.4571ZM302.944 63.211C308.947 66.4495 313.65 70.9775 317.092 76.8279L321.401 74.2924C317.495 67.6521 312.12 62.4805 305.318 58.8105L302.944 63.211ZM317.104 76.8475C320.607 82.6798 322.423 89.3087 322.508 96.7995L327.508 96.7428C327.413 88.4413 325.388 80.9296 321.39 74.2728L317.104 76.8475ZM322.508 96.7995C322.593 104.29 320.928 111.002 317.553 116.995L321.909 119.449C325.748 112.633 327.602 105.045 327.508 96.7428L322.508 96.7995ZM317.559 116.984C314.168 122.93 309.558 127.571 303.701 130.945L306.197 135.277C312.832 131.455 318.076 126.17 321.902 119.461L317.559 116.984ZM303.701 130.945C297.846 134.317 291.351 136.056 284.167 136.137L284.223 141.137C292.218 141.046 299.559 139.1 306.197 135.277L303.701 130.945ZM284.02 123.198C291.077 123.118 296.9 120.668 301.211 115.727L297.444 112.44C294.186 116.173 289.785 118.132 283.963 118.198L284.02 123.198ZM301.195 115.746C305.555 110.848 307.584 104.505 307.499 96.9699L302.499 97.0266C302.574 103.597 300.822 108.644 297.46 112.421L301.195 115.746ZM307.499 96.9699C307.413 89.3683 305.244 83.0579 300.755 78.3253L297.127 81.7664C300.553 85.3778 302.424 90.3691 302.499 97.0266L307.499 96.9699ZM300.787 78.3598C296.365 73.5186 290.488 71.2012 283.431 71.2813L283.487 76.281C289.309 76.2149 293.754 78.074 297.095 81.732L300.787 78.3598ZM283.431 71.2813C276.321 71.362 270.433 73.7568 266.04 78.6043L269.744 81.9621C273.074 78.2881 277.565 76.3482 283.487 76.281L283.431 71.2813ZM266.023 78.6226C261.724 83.4609 259.75 89.8533 259.837 97.5107L264.837 97.454C264.76 90.699 266.489 85.6253 269.761 81.9438L266.023 78.6226ZM259.837 97.5107C259.923 105.102 262.046 111.433 266.435 116.237L270.127 112.865C266.752 109.17 264.912 104.122 264.837 97.454L259.837 97.5107ZM266.467 116.272C270.97 121.018 276.91 123.279 284.02 123.198L283.963 118.198C278.04 118.265 273.507 116.428 270.095 112.83L266.467 116.272ZM359.356 132.494L358.157 134.688L358.169 134.694L359.356 132.494ZM344.124 117.946L341.975 119.222L341.984 119.237L341.993 119.252L344.124 117.946ZM343.64 75.2833L341.48 74.0254L341.474 74.0351L341.469 74.045L343.64 75.2833ZM358.537 60.3933L357.301 58.2206L357.29 58.227L358.537 60.3933ZM400.28 59.9196L399.081 62.1138L399.093 62.1199L400.28 59.9196ZM415.396 74.469L413.241 75.7368L413.247 75.7466L413.253 75.7564L415.396 74.469ZM415.88 117.131L418.052 118.37L418.058 118.358L415.88 117.131ZM401.098 132.02L402.346 134.186L402.346 134.186L401.098 132.02ZM395.477 112.993L393.609 111.33L393.601 111.34L393.593 111.349L395.477 112.993ZM395.09 78.9548L393.244 80.6408L393.26 80.6582L393.277 80.6753L395.09 78.9548ZM364.041 79.1921L362.189 77.5132L362.18 77.5223L362.172 77.5315L364.041 79.1921ZM364.43 113.46L362.584 115.146L362.6 115.163L362.616 115.18L364.43 113.46ZM380.316 135.046C373.131 135.128 366.556 133.538 360.543 130.293L358.169 134.694C364.961 138.358 372.378 140.136 380.373 140.046L380.316 135.046ZM360.554 130.3C354.617 127.057 349.859 122.517 346.256 116.639L341.993 119.252C346.045 125.862 351.441 131.02 358.157 134.688L360.554 130.3ZM346.274 116.67C342.763 110.754 340.947 104.082 340.862 96.5912L335.862 96.648C335.956 104.95 337.982 112.495 341.975 119.222L346.274 116.67ZM340.862 96.5912C340.777 89.1005 342.442 82.432 345.812 76.5217L341.469 74.045C337.622 80.7907 335.768 88.3464 335.862 96.648L340.862 96.5912ZM345.801 76.5413C349.27 70.5834 353.923 65.9359 359.785 62.5597L357.29 58.227C350.659 62.0463 345.381 67.3255 341.48 74.0254L345.801 76.5413ZM359.774 62.5661C365.712 59.1864 372.25 57.4476 379.434 57.366L379.378 52.3663C371.383 52.4571 364.008 54.403 357.301 58.2206L359.774 62.5661ZM379.434 57.366C386.619 57.2845 393.151 58.8749 399.081 62.1137L401.478 57.7255C394.756 54.0541 387.372 52.2756 379.378 52.3663L379.434 57.366ZM399.093 62.1199C405.096 65.3584 409.799 69.8864 413.241 75.7368L417.55 73.2013C413.644 66.5609 408.27 61.3894 401.467 57.7194L399.093 62.1199ZM413.253 75.7564C416.756 81.5886 418.572 88.2176 418.657 95.7084L423.657 95.6517C423.562 87.3501 421.538 79.8385 417.539 73.1817L413.253 75.7564ZM418.657 95.7084C418.742 103.199 417.078 109.911 413.702 115.904L418.058 118.358C421.897 111.542 423.751 103.954 423.657 95.6517L418.657 95.7084ZM413.708 115.893C410.317 121.839 405.707 126.48 399.85 129.854L402.346 134.186C408.981 130.364 414.226 125.079 418.052 118.37L413.708 115.893ZM399.85 129.854C393.995 133.226 387.501 134.964 380.316 135.046L380.373 140.046C388.367 139.955 395.708 138.009 402.346 134.186L399.85 129.854ZM380.169 122.107C387.226 122.027 393.049 119.577 397.36 114.636L393.593 111.349C390.335 115.082 385.934 117.041 380.112 117.107L380.169 122.107ZM397.344 114.655C401.704 109.757 403.733 103.414 403.648 95.8787L398.648 95.9355C398.723 102.506 396.971 107.553 393.609 111.33L397.344 114.655ZM403.648 95.8787C403.562 88.2771 401.393 81.9668 396.904 77.2342L393.277 80.6753C396.702 84.2867 398.573 89.278 398.648 95.9355L403.648 95.8787ZM396.936 77.2687C392.514 72.4275 386.637 70.1101 379.58 70.1902L379.637 75.1899C385.458 75.1238 389.903 76.9829 393.244 80.6408L396.936 77.2687ZM379.58 70.1902C372.47 70.2709 366.582 72.6657 362.189 77.5132L365.893 80.871C369.223 77.1969 373.714 75.2571 379.637 75.1899L379.58 70.1902ZM362.172 77.5315C357.873 82.3698 355.899 88.7622 355.986 96.4196L360.986 96.3629C360.909 89.6079 362.639 84.5342 365.91 80.8527L362.172 77.5315ZM355.986 96.4196C356.072 104.011 358.195 110.342 362.584 115.146L366.276 111.774C362.901 108.079 361.061 103.031 360.986 96.3629L355.986 96.4196ZM362.616 115.18C367.119 119.927 373.059 122.188 380.169 122.107L380.112 117.107C374.19 117.174 369.656 115.337 366.244 111.739L362.616 115.18ZM485.109 135.552L483.137 137.089L483.898 138.066L485.137 138.052L485.109 135.552ZM457.566 100.212L459.538 98.6754L454.982 92.8299L455.066 100.241L457.566 100.212ZM457.97 135.86L457.999 138.36L460.499 138.331L460.47 135.832L457.97 135.86ZM438.307 136.083L435.807 136.111L435.835 138.611L438.335 138.583L438.307 136.083ZM437.391 55.3582L437.362 52.8584L434.862 52.8868L434.891 55.3866L437.391 55.3582ZM457.054 55.1351L459.554 55.1067L459.526 52.6069L457.026 52.6352L457.054 55.1351ZM457.456 90.5528L454.956 90.5812L455.041 98.0039L459.464 92.0425L457.456 90.5528ZM483.963 54.8297L483.934 52.3299L482.694 52.344L481.955 53.34L483.963 54.8297ZM507.076 54.5674L509.055 56.0957L512.211 52.009L507.048 52.0676L507.076 54.5674ZM476.247 94.4798L474.268 92.9516L473.062 94.513L474.301 96.049L476.247 94.4798ZM509.142 135.279L509.17 137.779L514.322 137.721L511.088 133.71L509.142 135.279ZM487.08 134.015L459.538 98.6754L455.594 101.749L483.137 137.089L487.08 134.015ZM455.066 100.241L455.471 135.888L460.47 135.832L460.066 100.184L455.066 100.241ZM457.942 133.36L438.278 133.583L438.335 138.583L457.999 138.36L457.942 133.36ZM440.806 136.055L439.89 55.3299L434.891 55.3866L435.807 136.111L440.806 136.055ZM437.419 57.8581L457.083 57.6349L457.026 52.6352L437.362 52.8584L437.419 57.8581ZM454.554 55.1635L454.956 90.5812L459.956 90.5244L459.554 55.1067L454.554 55.1635ZM459.464 92.0425L485.97 56.3194L481.955 53.34L455.449 89.0631L459.464 92.0425ZM483.991 57.3296L507.104 57.0673L507.048 52.0676L483.934 52.3299L483.991 57.3296ZM505.098 53.0392L474.268 92.9516L478.225 96.0081L509.055 56.0957L505.098 53.0392ZM474.301 96.049L507.196 136.848L511.088 133.71L478.193 92.9107L474.301 96.049ZM509.114 132.779L485.08 133.052L485.137 138.052L509.17 137.779L509.114 132.779ZM626.57 133.947L626.599 136.446L629.098 136.418L629.07 133.918L626.57 133.947ZM606.906 134.17L604.836 135.571L605.59 136.685L606.935 136.67L606.906 134.17ZM573.453 84.7512L575.524 83.3497L570.859 76.459L570.954 84.7795L573.453 84.7512ZM574.019 134.543L574.047 137.043L576.547 137.014L576.518 134.515L574.019 134.543ZM554.355 134.766L551.855 134.794L551.883 137.294L554.383 137.266L554.355 134.766ZM553.439 54.0413L553.41 51.5415L550.911 51.5698L550.939 54.0697L553.439 54.0413ZM573.102 53.8182L575.176 52.4211L574.422 51.303L573.074 51.3183L573.102 53.8182ZM606.558 103.467L604.485 104.864L609.153 111.791L609.058 103.438L606.558 103.467ZM605.99 53.4449L605.962 50.9451L603.462 50.9735L603.491 53.4733L605.99 53.4449ZM625.654 53.2218L628.154 53.1934L628.126 50.6936L625.626 50.722L625.654 53.2218ZM626.542 131.447L606.878 131.67L606.935 136.67L626.599 136.446L626.542 131.447ZM608.977 132.768L575.524 83.3497L571.383 86.1526L604.836 135.571L608.977 132.768ZM570.954 84.7795L571.519 134.571L576.518 134.515L575.953 84.7228L570.954 84.7795ZM573.99 132.043L554.326 132.266L554.383 137.266L574.047 137.043L573.99 132.043ZM556.855 134.738L555.939 54.0129L550.939 54.0697L551.855 134.794L556.855 134.738ZM553.467 56.5411L573.131 56.318L573.074 51.3183L553.41 51.5415L553.467 56.5411ZM571.029 55.2152L604.485 104.864L608.631 102.07L575.176 52.4211L571.029 55.2152ZM609.058 103.438L608.49 53.4166L603.491 53.4733L604.058 103.495L609.058 103.438ZM606.019 55.9448L625.682 55.7216L625.626 50.722L605.962 50.9451L606.019 55.9448ZM623.154 53.2502L624.07 133.975L629.07 133.918L628.154 53.1934L623.154 53.2502ZM663.771 129.039L662.573 131.233L662.584 131.239L663.771 129.039ZM648.54 114.491L646.391 115.767L646.4 115.782L646.409 115.798L648.54 114.491ZM648.056 71.8288L645.896 70.5708L645.89 70.5806L645.885 70.5904L648.056 71.8288ZM662.953 56.9388L661.717 54.766L661.705 54.7724L662.953 56.9388ZM704.696 56.4651L703.497 58.6592L703.509 58.6653L704.696 56.4651ZM719.812 71.0145L717.657 72.2822L717.663 72.2921L717.669 72.3018L719.812 71.0145ZM720.296 113.677L722.468 114.915L722.474 114.904L720.296 113.677ZM705.514 128.565L706.762 130.732L706.762 130.732L705.514 128.565ZM699.893 109.538L698.025 107.876L698.017 107.885L698.009 107.894L699.893 109.538ZM699.506 75.5002L697.66 77.1863L697.676 77.2037L697.692 77.2207L699.506 75.5002ZM668.457 75.7375L666.605 74.0586L666.596 74.0677L666.588 74.077L668.457 75.7375ZM668.846 110.005L667 111.691L667.016 111.709L667.032 111.726L668.846 110.005ZM684.732 131.591C677.547 131.673 670.972 130.083 664.958 126.839L662.584 131.239C669.377 134.904 676.794 136.682 684.789 136.591L684.732 131.591ZM664.97 126.845C659.033 123.603 654.275 119.062 650.672 113.184L646.409 115.798C650.461 122.407 655.857 127.565 662.573 131.233L664.97 126.845ZM650.69 113.215C647.179 107.3 645.363 100.627 645.278 93.1367L640.278 93.1934C640.372 101.495 642.398 109.04 646.391 115.767L650.69 113.215ZM645.278 93.1367C645.193 85.6459 646.858 78.9774 650.228 73.0672L645.885 70.5904C642.038 77.3362 640.184 84.8919 640.278 93.1934L645.278 93.1367ZM650.217 73.0867C653.686 67.1288 658.339 62.4814 664.201 59.1051L661.705 54.7724C655.075 58.5918 649.797 63.871 645.896 70.5708L650.217 73.0867ZM664.19 59.1115C670.128 55.7318 676.666 53.993 683.85 53.9115L683.794 48.9118C675.799 49.0025 668.424 50.9484 661.717 54.766L664.19 59.1115ZM683.85 53.9115C691.035 53.8299 697.567 55.4204 703.497 58.6592L705.894 54.271C699.172 50.5996 691.788 48.8211 683.794 48.9118L683.85 53.9115ZM703.509 58.6653C709.512 61.9038 714.215 66.4319 717.657 72.2822L721.966 69.7468C718.06 63.1064 712.685 57.9348 705.883 54.2648L703.509 58.6653ZM717.669 72.3018C721.172 78.1341 722.988 84.7631 723.073 92.2539L728.073 92.1971C727.978 83.8956 725.953 76.3839 721.955 69.7271L717.669 72.3018ZM723.073 92.2539C723.158 99.7443 721.493 106.456 718.118 112.45L722.474 114.904C726.313 108.088 728.167 100.499 728.073 92.1971L723.073 92.2539ZM718.124 112.438C714.733 118.385 710.123 123.026 704.266 126.399L706.762 130.732C713.397 126.91 718.641 121.625 722.468 114.915L718.124 112.438ZM704.266 126.399C698.411 129.772 691.916 131.51 684.732 131.591L684.789 136.591C692.783 136.5 700.124 134.555 706.762 130.732L704.266 126.399ZM684.585 118.652C691.642 118.572 697.465 116.122 701.776 111.182L698.009 107.894C694.751 111.627 690.35 113.587 684.528 113.653L684.585 118.652ZM701.76 111.2C706.12 106.302 708.149 99.9592 708.064 92.4242L703.064 92.4809C703.139 99.0516 701.387 104.099 698.025 107.876L701.76 111.2ZM708.064 92.4242C707.978 84.8226 705.809 78.5123 701.32 73.7797L697.692 77.2207C701.118 80.8322 702.989 85.8234 703.064 92.4809L708.064 92.4242ZM701.352 73.8141C696.93 68.9729 691.053 66.6555 683.996 66.7356L684.053 71.7353C689.874 71.6692 694.319 73.5284 697.66 77.1863L701.352 73.8141ZM683.996 66.7356C676.886 66.8163 670.998 69.2112 666.605 74.0586L670.309 77.4165C673.639 73.7424 678.13 71.8025 684.053 71.7353L683.996 66.7356ZM666.588 74.077C662.289 78.9153 660.315 85.3077 660.402 92.9651L665.402 92.9083C665.325 86.1533 667.054 81.0796 670.326 77.3981L666.588 74.077ZM660.402 92.9651C660.488 100.556 662.611 106.887 667 111.691L670.692 108.319C667.317 104.625 665.477 99.5765 665.402 92.9083L660.402 92.9651ZM667.032 111.726C671.535 116.472 677.475 118.733 684.585 118.652L684.528 113.653C678.605 113.72 674.072 111.882 670.66 108.285L667.032 111.726ZM852.889 50.6431L855.315 51.2462L856.096 48.1065L852.861 48.1433L852.889 50.6431ZM832.762 131.607L832.79 134.107L834.722 134.085L835.188 132.21L832.762 131.607ZM808.958 131.877L806.536 132.493L807.02 134.399L808.987 134.377L808.958 131.877ZM795.476 78.8964L797.899 78.2799L793.045 78.3152L795.476 78.8964ZM782.74 132.174L782.768 134.674L784.718 134.652L785.171 132.756L782.74 132.174ZM758.937 132.444L756.52 133.086L757.02 134.966L758.965 134.944L758.937 132.444ZM737.552 51.952L737.523 49.4521L734.311 49.4886L735.136 52.5939L737.552 51.952ZM758.595 51.7132L761.042 51.2006L760.621 49.19L758.567 49.2133L758.595 51.7132ZM770.876 110.343L768.43 110.855L773.311 110.909L770.876 110.343ZM784.584 51.4182L784.555 48.9184L782.593 48.9407L782.149 50.8518L784.584 51.4182ZM806.202 51.1729L808.629 50.5738L808.155 48.6506L806.174 48.6731L806.202 51.1729ZM820.668 109.778L818.241 110.377L823.125 110.239L820.668 109.778ZM831.731 50.8832L831.702 48.3834L829.652 48.4066L829.274 50.4217L831.731 50.8832ZM850.463 50.04L830.336 131.004L835.188 132.21L855.315 51.2462L850.463 50.04ZM832.733 129.107L808.93 129.377L808.987 134.377L832.79 134.107L832.733 129.107ZM811.381 131.26L797.899 78.2799L793.053 79.5129L806.536 132.493L811.381 131.26ZM793.045 78.3152L780.308 131.593L785.171 132.756L797.908 79.4777L793.045 78.3152ZM782.712 129.675L758.908 129.945L758.965 134.944L782.768 134.674L782.712 129.675ZM761.353 131.803L739.968 51.31L735.136 52.5939L756.52 133.086L761.353 131.803ZM737.58 54.4518L758.624 54.213L758.567 49.2133L737.523 49.4521L737.58 54.4518ZM756.149 52.2257L768.43 110.855L773.323 109.83L761.042 51.2006L756.149 52.2257ZM773.311 110.909L787.019 51.9847L782.149 50.8518L768.442 109.776L773.311 110.909ZM784.612 53.9181L806.231 53.6727L806.174 48.6731L784.555 48.9184L784.612 53.9181ZM803.775 51.772L818.241 110.377L823.095 109.178L808.629 50.5738L803.775 51.772ZM823.125 110.239L834.188 51.3447L829.274 50.4217L818.211 109.316L823.125 110.239ZM831.759 53.383L852.918 53.1429L852.861 48.1433L831.702 48.3834L831.759 53.383ZM894.341 47.2975L896.84 47.3734L896.919 44.7681L894.313 44.7977L894.341 47.2975ZM892.666 102.405L892.695 104.905L895.092 104.878L895.165 102.481L892.666 102.405ZM875.992 102.594L873.496 102.727L873.623 105.121L876.021 105.094L875.992 102.594ZM873.068 47.5389L873.039 45.0391L870.433 45.0687L870.571 47.6716L873.068 47.5389ZM876.408 129.041L874.693 130.86L874.726 130.892L874.76 130.922L876.408 129.041ZM876.234 113.747L874.51 111.937L874.494 111.952L874.478 111.967L876.234 113.747ZM893.023 113.557L891.308 115.376L891.324 115.391L891.34 115.406L893.023 113.557ZM893.197 128.851L894.918 130.663L894.921 130.661L893.197 128.851ZM891.842 47.2216L890.168 102.329L895.165 102.481L896.84 47.3734L891.842 47.2216ZM892.638 99.9052L875.964 100.094L876.021 105.094L892.695 104.905L892.638 99.9052ZM878.489 102.462L875.564 47.4063L870.571 47.6716L873.496 102.727L878.489 102.462ZM873.096 50.0388L894.37 49.7973L894.313 44.7977L873.039 45.0391L873.096 50.0388ZM884.923 129.435C881.987 129.468 879.766 128.661 878.055 127.161L874.76 130.922C877.54 133.358 881.016 134.479 884.979 134.434L884.923 129.435ZM878.122 127.222C876.448 125.644 875.628 123.773 875.602 121.46L870.602 121.517C870.643 125.183 872.027 128.348 874.693 130.86L878.122 127.222ZM875.602 121.46C875.574 119.051 876.365 117.13 877.99 115.527L874.478 111.967C871.857 114.553 870.56 117.793 870.602 121.517L875.602 121.46ZM877.958 115.558C879.637 113.958 881.827 113.079 884.737 113.046L884.68 108.046C880.69 108.091 877.23 109.346 874.51 111.937L877.958 115.558ZM884.737 113.046C887.555 113.014 889.672 113.834 891.308 115.376L894.738 111.738C892.034 109.189 888.608 108.001 884.68 108.046L884.737 113.046ZM891.34 115.406C893.068 116.978 893.918 118.872 893.945 121.252L898.945 121.195C898.902 117.442 897.471 114.225 894.706 111.708L891.34 115.406ZM893.945 121.252C893.971 123.535 893.179 125.415 891.472 127.04L894.921 130.661C897.614 128.096 898.987 124.891 898.945 121.195L893.945 121.252ZM891.475 127.038C889.878 128.555 887.767 129.402 884.923 129.435L884.979 134.434C888.881 134.39 892.268 133.181 894.918 130.663L891.475 127.038Z" fill="#FFE7E1"/>
</svg>
