<svg width="58" height="75" viewBox="0 0 58 75" fill="none" xmlns="http://www.w3.org/2000/svg">
<path d="M29 35.3552C26.2531 35.3552 23.6187 34.3854 21.6764 32.6591C19.7341 30.9328 18.6429 28.5915 18.6429 26.1501C18.6429 23.7088 19.7341 21.3674 21.6764 19.6411C23.6187 17.9149 26.2531 16.945 29 16.945C31.7469 16.945 34.3813 17.9149 36.3236 19.6411C38.2659 21.3674 39.3571 23.7088 39.3571 26.1501C39.3571 27.359 39.0892 28.556 38.5688 29.6728C38.0483 30.7896 37.2854 31.8043 36.3236 32.6591C35.3619 33.5139 34.2201 34.1919 32.9635 34.6545C31.7069 35.1171 30.3601 35.3552 29 35.3552ZM29 0.375854C21.3087 0.375854 13.9325 3.09135 8.4939 7.92497C3.05535 12.7586 0 19.3144 0 26.1501C0 45.4808 29 74.0166 29 74.0166C29 74.0166 58 45.4808 58 26.1501C58 19.3144 54.9446 12.7586 49.5061 7.92497C44.0675 3.09135 36.6913 0.375854 29 0.375854Z" fill="#FCCF31"/>
</svg>
