<svg width="343" height="94" viewBox="0 0 343 94" fill="none" xmlns="http://www.w3.org/2000/svg">
<g filter="url(#filter0_d_23_2303)">
<path d="M52.0392 3.93729L6.15043 59.0636C5.44375 59.9125 5.55908 61.1736 6.40801 61.8803L12.0481 66.5752C12.0481 66.5752 20.8934 61.7878 25.9776 66.6276C31.0618 71.4673 27.1201 79.1217 27.1201 79.1217L32.7507 83.8087C33.6034 84.5185 34.8707 84.3987 35.5752 83.5417L81.433 27.7602C82.1055 26.9422 82.0238 25.7417 81.2466 25.0223L76.111 20.2688C76.111 20.2688 67.9834 25.6536 62.9593 21.4715C57.9353 17.2893 61.8168 8.97736 61.8168 8.97736L54.7879 3.62559C53.9359 2.97692 52.7242 3.11433 52.0392 3.93729Z" stroke="black" stroke-width="3"/>
<line x1="43.6713" y1="18.376" x2="72.38" y2="42.274" stroke="black" stroke-width="2" stroke-dasharray="4 4"/>
</g>
<g filter="url(#filter1_d_23_2303)">
<path d="M60.32 39.0595V42.4495H54.74V59.9995H50.54V42.4495H44.96V39.0595H60.32ZM69.3845 39.0595V59.9995H65.1845V39.0595H69.3845ZM74.3141 49.4995C74.3141 47.4395 74.7741 45.5995 75.6941 43.9795C76.6341 42.3395 77.9041 41.0695 79.5041 40.1695C81.1241 39.2495 82.9341 38.7895 84.9341 38.7895C87.2741 38.7895 89.3241 39.3895 91.0841 40.5895C92.8441 41.7895 94.0741 43.4495 94.7741 45.5695H89.9441C89.4641 44.5695 88.7841 43.8195 87.9041 43.3195C87.0441 42.8195 86.0441 42.5695 84.9041 42.5695C83.6841 42.5695 82.5941 42.8595 81.6341 43.4395C80.6941 43.9995 79.9541 44.7995 79.4141 45.8395C78.8941 46.8795 78.6341 48.0995 78.6341 49.4995C78.6341 50.8795 78.8941 52.0995 79.4141 53.1595C79.9541 54.1995 80.6941 55.0095 81.6341 55.5895C82.5941 56.1495 83.6841 56.4295 84.9041 56.4295C86.0441 56.4295 87.0441 56.1795 87.9041 55.6795C88.7841 55.1595 89.4641 54.3995 89.9441 53.3995H94.7741C94.0741 55.5395 92.8441 57.2095 91.0841 58.4095C89.3441 59.5895 87.2941 60.1795 84.9341 60.1795C82.9341 60.1795 81.1241 59.7295 79.5041 58.8295C77.9041 57.9095 76.6341 56.6395 75.6941 55.0195C74.7741 53.3995 74.3141 51.5595 74.3141 49.4995ZM111.981 59.9995L104.361 50.6695V59.9995H100.161V39.0595H104.361V48.4495L111.981 39.0595H117.051L108.411 49.4395L117.291 59.9995H111.981ZM126.054 42.4495V47.6995H133.104V51.0295H126.054V56.5795H134.004V59.9995H121.854V39.0295H134.004V42.4495H126.054ZM153.871 39.0595V42.4495H148.291V59.9995H144.091V42.4495H138.511V39.0595H153.871ZM176.105 39.0595V59.9995H171.905V51.0895H162.935V59.9995H158.735V39.0595H162.935V47.6695H171.905V39.0595H176.105ZM186.179 39.0595V52.0195C186.179 53.4395 186.549 54.5295 187.289 55.2895C188.029 56.0295 189.069 56.3995 190.409 56.3995C191.769 56.3995 192.819 56.0295 193.559 55.2895C194.299 54.5295 194.669 53.4395 194.669 52.0195V39.0595H198.899V51.9895C198.899 53.7695 198.509 55.2795 197.729 56.5195C196.969 57.7395 195.939 58.6595 194.639 59.2795C193.359 59.8995 191.929 60.2095 190.349 60.2095C188.789 60.2095 187.369 59.8995 186.089 59.2795C184.829 58.6595 183.829 57.7395 183.089 56.5195C182.349 55.2795 181.979 53.7695 181.979 51.9895V39.0595H186.179ZM216.637 49.2595C217.817 49.4795 218.787 50.0695 219.547 51.0295C220.307 51.9895 220.687 53.0895 220.687 54.3295C220.687 55.4495 220.407 56.4395 219.847 57.2995C219.307 58.1395 218.517 58.7995 217.477 59.2795C216.437 59.7595 215.207 59.9995 213.787 59.9995H204.757V39.0595H213.397C214.817 39.0595 216.037 39.2895 217.057 39.7495C218.097 40.2095 218.877 40.8495 219.397 41.6695C219.937 42.4895 220.207 43.4195 220.207 44.4595C220.207 45.6795 219.877 46.6995 219.217 47.5195C218.577 48.3395 217.717 48.9195 216.637 49.2595ZM208.957 47.6995H212.797C213.797 47.6995 214.567 47.4795 215.107 47.0395C215.647 46.5795 215.917 45.9295 215.917 45.0895C215.917 44.2495 215.647 43.5995 215.107 43.1395C214.567 42.6795 213.797 42.4495 212.797 42.4495H208.957V47.6995ZM213.187 56.5795C214.207 56.5795 214.997 56.3395 215.557 55.8595C216.137 55.3795 216.427 54.6995 216.427 53.8195C216.427 52.9195 216.127 52.2195 215.527 51.7195C214.927 51.1995 214.117 50.9395 213.097 50.9395H208.957V56.5795H213.187ZM227.694 60.2095C226.934 60.2095 226.304 59.9795 225.804 59.5195C225.324 59.0395 225.084 58.4495 225.084 57.7495C225.084 57.0495 225.324 56.4695 225.804 56.0095C226.304 55.5295 226.934 55.2895 227.694 55.2895C228.434 55.2895 229.044 55.5295 229.524 56.0095C230.004 56.4695 230.244 57.0495 230.244 57.7495C230.244 58.4495 230.004 59.0395 229.524 59.5195C229.044 59.9795 228.434 60.2095 227.694 60.2095ZM234.407 49.4995C234.407 47.4395 234.867 45.5995 235.787 43.9795C236.727 42.3395 237.997 41.0695 239.597 40.1695C241.217 39.2495 243.027 38.7895 245.027 38.7895C247.367 38.7895 249.417 39.3895 251.177 40.5895C252.937 41.7895 254.167 43.4495 254.867 45.5695H250.037C249.557 44.5695 248.877 43.8195 247.997 43.3195C247.137 42.8195 246.137 42.5695 244.997 42.5695C243.777 42.5695 242.687 42.8595 241.727 43.4395C240.787 43.9995 240.047 44.7995 239.507 45.8395C238.987 46.8795 238.727 48.0995 238.727 49.4995C238.727 50.8795 238.987 52.0995 239.507 53.1595C240.047 54.1995 240.787 55.0095 241.727 55.5895C242.687 56.1495 243.777 56.4295 244.997 56.4295C246.137 56.4295 247.137 56.1795 247.997 55.6795C248.877 55.1595 249.557 54.3995 250.037 53.3995H254.867C254.167 55.5395 252.937 57.2095 251.177 58.4095C249.437 59.5895 247.387 60.1795 245.027 60.1795C243.027 60.1795 241.217 59.7295 239.597 58.8295C237.997 57.9095 236.727 56.6395 235.787 55.0195C234.867 53.3995 234.407 51.5595 234.407 49.4995ZM269.975 60.2095C268.015 60.2095 266.215 59.7495 264.575 58.8295C262.935 57.9095 261.635 56.6395 260.675 55.0195C259.715 53.3795 259.235 51.5295 259.235 49.4695C259.235 47.4295 259.715 45.5995 260.675 43.9795C261.635 42.3395 262.935 41.0595 264.575 40.1395C266.215 39.2195 268.015 38.7595 269.975 38.7595C271.955 38.7595 273.755 39.2195 275.375 40.1395C277.015 41.0595 278.305 42.3395 279.245 43.9795C280.205 45.5995 280.685 47.4295 280.685 49.4695C280.685 51.5295 280.205 53.3795 279.245 55.0195C278.305 56.6395 277.015 57.9095 275.375 58.8295C273.735 59.7495 271.935 60.2095 269.975 60.2095ZM269.975 56.4595C271.235 56.4595 272.345 56.1795 273.305 55.6195C274.265 55.0395 275.015 54.2195 275.555 53.1595C276.095 52.0995 276.365 50.8695 276.365 49.4695C276.365 48.0695 276.095 46.8495 275.555 45.8095C275.015 44.7495 274.265 43.9395 273.305 43.3795C272.345 42.8195 271.235 42.5395 269.975 42.5395C268.715 42.5395 267.595 42.8195 266.615 43.3795C265.655 43.9395 264.905 44.7495 264.365 45.8095C263.825 46.8495 263.555 48.0695 263.555 49.4695C263.555 50.8695 263.825 52.0995 264.365 53.1595C264.905 54.2195 265.655 55.0395 266.615 55.6195C267.595 56.1795 268.715 56.4595 269.975 56.4595ZM308.439 39.0595V59.9995H304.239V46.3795L298.629 59.9995H295.449L289.809 46.3795V59.9995H285.609V39.0595H290.379L297.039 54.6295L303.699 39.0595H308.439Z" fill="black"/>
<path d="M60.32 39.0595H60.82V38.5595H60.32V39.0595ZM60.32 42.4495V42.9495H60.82V42.4495H60.32ZM54.74 42.4495V41.9495H54.24V42.4495H54.74ZM54.74 59.9995V60.4995H55.24V59.9995H54.74ZM50.54 59.9995H50.04V60.4995H50.54V59.9995ZM50.54 42.4495H51.04V41.9495H50.54V42.4495ZM44.96 42.4495H44.46V42.9495H44.96V42.4495ZM44.96 39.0595V38.5595H44.46V39.0595H44.96ZM59.82 39.0595V42.4495H60.82V39.0595H59.82ZM60.32 41.9495H54.74V42.9495H60.32V41.9495ZM54.24 42.4495V59.9995H55.24V42.4495H54.24ZM54.74 59.4995H50.54V60.4995H54.74V59.4995ZM51.04 59.9995V42.4495H50.04V59.9995H51.04ZM50.54 41.9495H44.96V42.9495H50.54V41.9495ZM45.46 42.4495V39.0595H44.46V42.4495H45.46ZM44.96 39.5595H60.32V38.5595H44.96V39.5595ZM69.3845 39.0595H69.8845V38.5595H69.3845V39.0595ZM69.3845 59.9995V60.4995H69.8845V59.9995H69.3845ZM65.1845 59.9995H64.6845V60.4995H65.1845V59.9995ZM65.1845 39.0595V38.5595H64.6845V39.0595H65.1845ZM68.8845 39.0595V59.9995H69.8845V39.0595H68.8845ZM69.3845 59.4995H65.1845V60.4995H69.3845V59.4995ZM65.6845 59.9995V39.0595H64.6845V59.9995H65.6845ZM65.1845 39.5595H69.3845V38.5595H65.1845V39.5595ZM75.6941 43.9795L75.2603 43.7309L75.2593 43.7326L75.6941 43.9795ZM79.5041 40.1695L79.7492 40.6053L79.751 40.6043L79.5041 40.1695ZM94.7741 45.5695V46.0695H95.4657L95.2489 45.4127L94.7741 45.5695ZM89.9441 45.5695L89.4933 45.7859L89.6294 46.0695H89.9441V45.5695ZM87.9041 43.3195L87.6527 43.7518L87.6571 43.7542L87.9041 43.3195ZM81.6341 43.4395L81.89 43.8691L81.8926 43.8675L81.6341 43.4395ZM79.4141 45.8395L78.9703 45.6091L78.9669 45.6159L79.4141 45.8395ZM79.4141 53.1595L78.965 53.3798L78.9703 53.3899L79.4141 53.1595ZM81.6341 55.5895L81.3714 56.0152L81.3821 56.0214L81.6341 55.5895ZM87.9041 55.6795L88.1554 56.1118L88.1584 56.11L87.9041 55.6795ZM89.9441 53.3995V52.8995H89.6294L89.4933 53.1831L89.9441 53.3995ZM94.7741 53.3995L95.2493 53.555L95.4637 52.8995H94.7741V53.3995ZM91.0841 58.4095L91.3647 58.8233L91.3657 58.8226L91.0841 58.4095ZM79.5041 58.8295L79.2548 59.263L79.2612 59.2666L79.5041 58.8295ZM75.6941 55.0195L75.2593 55.2664L75.2616 55.2705L75.6941 55.0195ZM74.8141 49.4995C74.8141 47.5167 75.256 45.7634 76.1288 44.2264L75.2593 43.7326C74.2921 45.4356 73.8141 47.3623 73.8141 49.4995H74.8141ZM76.1279 44.2281C77.0244 42.664 78.2302 41.4597 79.7492 40.6053L79.2589 39.7337C77.5779 40.6793 76.2437 42.0151 75.2603 43.7309L76.1279 44.2281ZM79.751 40.6043C81.2902 39.7302 83.0141 39.2895 84.9341 39.2895V38.2895C82.8541 38.2895 80.9579 38.7689 79.2571 39.7347L79.751 40.6043ZM84.9341 39.2895C87.1839 39.2895 89.1336 39.8648 90.8024 41.0026L91.3657 40.1764C89.5146 38.9142 87.3642 38.2895 84.9341 38.2895V39.2895ZM90.8024 41.0026C92.467 42.1376 93.632 43.7052 94.2993 45.7263L95.2489 45.4127C94.5162 43.1938 93.2211 41.4414 91.3657 40.1764L90.8024 41.0026ZM94.7741 45.0695H89.9441V46.0695H94.7741V45.0695ZM90.3948 45.3531C89.8752 44.2705 89.1281 43.4399 88.1511 42.8848L87.6571 43.7542C88.44 44.1991 89.053 44.8685 89.4933 45.7859L90.3948 45.3531ZM88.1554 42.8873C87.2085 42.3367 86.1193 42.0695 84.9041 42.0695V43.0695C85.9689 43.0695 86.8796 43.3023 87.6528 43.7518L88.1554 42.8873ZM84.9041 42.0695C83.6012 42.0695 82.4203 42.3803 81.3755 43.0116L81.8926 43.8675C82.7678 43.3387 83.7669 43.0695 84.9041 43.0695V42.0695ZM81.3782 43.01C80.3525 43.621 79.55 44.4926 78.9703 45.6091L79.8578 46.0699C80.3581 45.1064 81.0356 44.378 81.89 43.8691L81.3782 43.01ZM78.9669 45.6159C78.4058 46.7381 78.1341 48.0375 78.1341 49.4995H79.1341C79.1341 48.1615 79.3824 47.0209 79.8613 46.0631L78.9669 45.6159ZM78.1341 49.4995C78.1341 50.943 78.4063 52.2405 78.9652 53.3797L79.863 52.9393C79.3818 51.9585 79.1341 50.816 79.1341 49.4995H78.1341ZM78.9703 53.3899C79.5493 54.5051 80.3498 55.3846 81.3715 56.015L81.8966 55.164C81.0383 54.6344 80.3588 53.894 79.8578 52.9291L78.9703 53.3899ZM81.3821 56.0214C82.4259 56.6303 83.6044 56.9295 84.9041 56.9295V55.9295C83.7637 55.9295 82.7622 55.6687 81.886 55.1576L81.3821 56.0214ZM84.9041 56.9295C86.1193 56.9295 87.2085 56.6623 88.1554 56.1118L87.6528 55.2473C86.8796 55.6967 85.9689 55.9295 84.9041 55.9295V56.9295ZM88.1584 56.11C89.1309 55.5353 89.8758 54.6972 90.3948 53.6159L89.4933 53.1831C89.0523 54.1019 88.4372 54.7837 87.6497 55.249L88.1584 56.11ZM89.9441 53.8995H94.7741V52.8995H89.9441V53.8995ZM94.2988 53.2441C93.6311 55.2856 92.4658 56.8623 90.8024 57.9964L91.3657 58.8226C93.2223 57.5568 94.5171 55.7935 95.2493 53.555L94.2988 53.2441ZM90.8034 57.9957C89.1562 59.1128 87.2067 59.6795 84.9341 59.6795V60.6795C87.3814 60.6795 89.5319 60.0662 91.3647 58.8233L90.8034 57.9957ZM84.9341 59.6795C83.0121 59.6795 81.2868 59.2479 79.7469 58.3924L79.2612 59.2666C80.9613 60.2111 82.856 60.6795 84.9341 60.6795V59.6795ZM79.7533 58.3961C78.2305 57.5204 77.0232 56.3139 76.1265 54.7686L75.2616 55.2705C76.2449 56.9651 77.5776 58.2986 79.2548 59.263L79.7533 58.3961ZM76.1288 54.7726C75.256 53.2356 74.8141 51.4823 74.8141 49.4995H73.8141C73.8141 51.6367 74.2921 53.5634 75.2593 55.2664L76.1288 54.7726ZM111.981 59.9995L111.594 60.3158L111.744 60.4995H111.981V59.9995ZM104.361 50.6695L104.749 50.3532L103.861 49.2669V50.6695H104.361ZM104.361 59.9995V60.4995H104.861V59.9995H104.361ZM100.161 59.9995H99.6614V60.4995H100.161V59.9995ZM100.161 39.0595V38.5595H99.6614V39.0595H100.161ZM104.361 39.0595H104.861V38.5595H104.361V39.0595ZM104.361 48.4495H103.861V49.8591L104.75 48.7646L104.361 48.4495ZM111.981 39.0595V38.5595H111.743L111.593 38.7444L111.981 39.0595ZM117.051 39.0595L117.436 39.3794L118.118 38.5595H117.051V39.0595ZM108.411 49.4395L108.027 49.1196L107.759 49.4411L108.029 49.7613L108.411 49.4395ZM117.291 59.9995V60.4995H118.365L117.674 59.6777L117.291 59.9995ZM112.369 59.6832L104.749 50.3532L103.974 50.9858L111.594 60.3158L112.369 59.6832ZM103.861 50.6695V59.9995H104.861V50.6695H103.861ZM104.361 59.4995H100.161V60.4995H104.361V59.4995ZM100.661 59.9995V39.0595H99.6614V59.9995H100.661ZM100.161 39.5595H104.361V38.5595H100.161V39.5595ZM103.861 39.0595V48.4495H104.861V39.0595H103.861ZM104.75 48.7646L112.37 39.3746L111.593 38.7444L103.973 48.1344L104.75 48.7646ZM111.981 39.5595H117.051V38.5595H111.981V39.5595ZM116.667 38.7396L108.027 49.1196L108.796 49.7594L117.436 39.3794L116.667 38.7396ZM108.029 49.7613L116.909 60.3213L117.674 59.6777L108.794 49.1177L108.029 49.7613ZM117.291 59.4995H111.981V60.4995H117.291V59.4995ZM126.054 42.4495V41.9495H125.554V42.4495H126.054ZM126.054 47.6995H125.554V48.1995H126.054V47.6995ZM133.104 47.6995H133.604V47.1995H133.104V47.6995ZM133.104 51.0295V51.5295H133.604V51.0295H133.104ZM126.054 51.0295V50.5295H125.554V51.0295H126.054ZM126.054 56.5795H125.554V57.0795H126.054V56.5795ZM134.004 56.5795H134.504V56.0795H134.004V56.5795ZM134.004 59.9995V60.4995H134.504V59.9995H134.004ZM121.854 59.9995H121.354V60.4995H121.854V59.9995ZM121.854 39.0295V38.5295H121.354V39.0295H121.854ZM134.004 39.0295H134.504V38.5295H134.004V39.0295ZM134.004 42.4495V42.9495H134.504V42.4495H134.004ZM125.554 42.4495V47.6995H126.554V42.4495H125.554ZM126.054 48.1995H133.104V47.1995H126.054V48.1995ZM132.604 47.6995V51.0295H133.604V47.6995H132.604ZM133.104 50.5295H126.054V51.5295H133.104V50.5295ZM125.554 51.0295V56.5795H126.554V51.0295H125.554ZM126.054 57.0795H134.004V56.0795H126.054V57.0795ZM133.504 56.5795V59.9995H134.504V56.5795H133.504ZM134.004 59.4995H121.854V60.4995H134.004V59.4995ZM122.354 59.9995V39.0295H121.354V59.9995H122.354ZM121.854 39.5295H134.004V38.5295H121.854V39.5295ZM133.504 39.0295V42.4495H134.504V39.0295H133.504ZM134.004 41.9495H126.054V42.9495H134.004V41.9495ZM153.871 39.0595H154.371V38.5595H153.871V39.0595ZM153.871 42.4495V42.9495H154.371V42.4495H153.871ZM148.291 42.4495V41.9495H147.791V42.4495H148.291ZM148.291 59.9995V60.4995H148.791V59.9995H148.291ZM144.091 59.9995H143.591V60.4995H144.091V59.9995ZM144.091 42.4495H144.591V41.9495H144.091V42.4495ZM138.511 42.4495H138.011V42.9495H138.511V42.4495ZM138.511 39.0595V38.5595H138.011V39.0595H138.511ZM153.371 39.0595V42.4495H154.371V39.0595H153.371ZM153.871 41.9495H148.291V42.9495H153.871V41.9495ZM147.791 42.4495V59.9995H148.791V42.4495H147.791ZM148.291 59.4995H144.091V60.4995H148.291V59.4995ZM144.591 59.9995V42.4495H143.591V59.9995H144.591ZM144.091 41.9495H138.511V42.9495H144.091V41.9495ZM139.011 42.4495V39.0595H138.011V42.4495H139.011ZM138.511 39.5595H153.871V38.5595H138.511V39.5595ZM176.105 39.0595H176.605V38.5595H176.105V39.0595ZM176.105 59.9995V60.4995H176.605V59.9995H176.105ZM171.905 59.9995H171.405V60.4995H171.905V59.9995ZM171.905 51.0895H172.405V50.5895H171.905V51.0895ZM162.935 51.0895V50.5895H162.435V51.0895H162.935ZM162.935 59.9995V60.4995H163.435V59.9995H162.935ZM158.735 59.9995H158.235V60.4995H158.735V59.9995ZM158.735 39.0595V38.5595H158.235V39.0595H158.735ZM162.935 39.0595H163.435V38.5595H162.935V39.0595ZM162.935 47.6695H162.435V48.1695H162.935V47.6695ZM171.905 47.6695V48.1695H172.405V47.6695H171.905ZM171.905 39.0595V38.5595H171.405V39.0595H171.905ZM175.605 39.0595V59.9995H176.605V39.0595H175.605ZM176.105 59.4995H171.905V60.4995H176.105V59.4995ZM172.405 59.9995V51.0895H171.405V59.9995H172.405ZM171.905 50.5895H162.935V51.5895H171.905V50.5895ZM162.435 51.0895V59.9995H163.435V51.0895H162.435ZM162.935 59.4995H158.735V60.4995H162.935V59.4995ZM159.235 59.9995V39.0595H158.235V59.9995H159.235ZM158.735 39.5595H162.935V38.5595H158.735V39.5595ZM162.435 39.0595V47.6695H163.435V39.0595H162.435ZM162.935 48.1695H171.905V47.1695H162.935V48.1695ZM172.405 47.6695V39.0595H171.405V47.6695H172.405ZM171.905 39.5595H176.105V38.5595H171.905V39.5595ZM186.179 39.0595H186.679V38.5595H186.179V39.0595ZM187.289 55.2895L186.931 55.6384L186.936 55.6431L187.289 55.2895ZM193.559 55.2895L193.913 55.6431L193.917 55.6383L193.559 55.2895ZM194.669 39.0595V38.5595H194.169V39.0595H194.669ZM198.899 39.0595H199.399V38.5595H198.899V39.0595ZM197.729 56.5195L197.306 56.2533L197.305 56.2551L197.729 56.5195ZM194.639 59.2795L194.424 58.8282L194.421 58.8295L194.639 59.2795ZM186.089 59.2795L185.868 59.7281L185.871 59.7295L186.089 59.2795ZM183.089 56.5195L182.66 56.7757L182.662 56.7788L183.089 56.5195ZM181.979 39.0595V38.5595H181.479V39.0595H181.979ZM185.679 39.0595V52.0195H186.679V39.0595H185.679ZM185.679 52.0195C185.679 53.5245 186.073 54.7569 186.931 55.6383L187.647 54.9407C187.026 54.3022 186.679 53.3546 186.679 52.0195H185.679ZM186.936 55.6431C187.794 56.5012 188.976 56.8995 190.409 56.8995V55.8995C189.163 55.8995 188.265 55.5578 187.643 54.936L186.936 55.6431ZM190.409 56.8995C191.86 56.8995 193.053 56.5025 193.913 55.6431L193.206 54.936C192.585 55.5565 191.678 55.8995 190.409 55.8995V56.8995ZM193.917 55.6383C194.776 54.7569 195.169 53.5245 195.169 52.0195H194.169C194.169 53.3546 193.823 54.3022 193.201 54.9407L193.917 55.6383ZM195.169 52.0195V39.0595H194.169V52.0195H195.169ZM194.669 39.5595H198.899V38.5595H194.669V39.5595ZM198.399 39.0595V51.9895H199.399V39.0595H198.399ZM198.399 51.9895C198.399 53.6957 198.026 55.1087 197.306 56.2533L198.152 56.7857C198.992 55.4504 199.399 53.8434 199.399 51.9895H198.399ZM197.305 56.2551C196.595 57.394 195.638 58.2492 194.424 58.8282L194.854 59.7308C196.24 59.0698 197.343 58.0851 198.154 56.7839L197.305 56.2551ZM194.421 58.8295C193.216 59.4131 191.862 59.7095 190.349 59.7095V60.7095C191.996 60.7095 193.502 60.3859 194.857 59.7295L194.421 58.8295ZM190.349 59.7095C188.857 59.7095 187.513 59.4135 186.307 58.8295L185.871 59.7295C187.226 60.3855 188.721 60.7095 190.349 60.7095V59.7095ZM186.31 58.8309C185.137 58.2537 184.208 57.4001 183.517 56.2602L182.662 56.7788C183.45 58.079 184.521 59.0653 185.868 59.7281L186.31 58.8309ZM183.519 56.2633C182.834 55.1169 182.479 53.7002 182.479 51.9895H181.479C181.479 53.8388 181.864 55.4421 182.66 56.7757L183.519 56.2633ZM182.479 51.9895V39.0595H181.479V51.9895H182.479ZM181.979 39.5595H186.179V38.5595H181.979V39.5595ZM216.637 49.2595L216.487 48.7826L216.545 49.751L216.637 49.2595ZM219.547 51.0295L219.939 50.7192L219.547 51.0295ZM219.847 57.2995L219.428 57.0267L219.427 57.0291L219.847 57.2995ZM217.477 59.2795L217.687 59.7335L217.477 59.2795ZM204.757 59.9995H204.257V60.4995H204.757V59.9995ZM204.757 39.0595V38.5595H204.257V39.0595H204.757ZM217.057 39.7495L216.852 40.2053L216.855 40.2068L217.057 39.7495ZM219.397 41.6695L218.975 41.9373L218.98 41.9445L219.397 41.6695ZM219.217 47.5195L218.828 47.206L218.823 47.2119L219.217 47.5195ZM208.957 47.6995H208.457V48.1995H208.957V47.6995ZM215.107 47.0395L215.423 47.4272L215.431 47.4201L215.107 47.0395ZM215.107 43.1395L215.431 42.7589L215.107 43.1395ZM208.957 42.4495V41.9495H208.457V42.4495H208.957ZM215.557 55.8595L215.238 55.4743L215.232 55.4799L215.557 55.8595ZM215.527 51.7195L215.2 52.0974L215.207 52.1036L215.527 51.7195ZM208.957 50.9395V50.4395H208.457V50.9395H208.957ZM208.957 56.5795H208.457V57.0795H208.957V56.5795ZM216.545 49.751C217.604 49.9484 218.468 50.4725 219.155 51.3399L219.939 50.7192C219.106 49.6666 218.03 49.0106 216.729 48.768L216.545 49.751ZM219.155 51.3399C219.844 52.2103 220.187 53.2006 220.187 54.3295H221.187C221.187 52.9784 220.77 51.7687 219.939 50.7192L219.155 51.3399ZM220.187 54.3295C220.187 55.3619 219.93 56.2552 219.428 57.0267L220.266 57.5723C220.884 56.6238 221.187 55.5372 221.187 54.3295H220.187ZM219.427 57.0291C218.945 57.7778 218.234 58.3794 217.268 58.8255L217.687 59.7335C218.8 59.2196 219.669 58.5012 220.268 57.5699L219.427 57.0291ZM217.268 58.8255C216.307 59.2689 215.152 59.4995 213.787 59.4995V60.4995C215.263 60.4995 216.567 60.2502 217.687 59.7335L217.268 58.8255ZM213.787 59.4995H204.757V60.4995H213.787V59.4995ZM205.257 59.9995V39.0595H204.257V59.9995H205.257ZM204.757 39.5595H213.397V38.5595H204.757V39.5595ZM213.397 39.5595C214.765 39.5595 215.911 39.7812 216.852 40.2053L217.263 39.2937C216.163 38.7979 214.87 38.5595 213.397 38.5595V39.5595ZM216.855 40.2068C217.82 40.6338 218.516 41.2143 218.975 41.9373L219.819 41.4017C219.238 40.4847 218.374 39.7853 217.259 39.2922L216.855 40.2068ZM218.98 41.9445C219.463 42.6779 219.707 43.5112 219.707 44.4595H220.707C220.707 43.3278 220.412 42.3011 219.815 41.3945L218.98 41.9445ZM219.707 44.4595C219.707 45.5845 219.405 46.4886 218.828 47.206L219.607 47.833C220.349 46.9104 220.707 45.7745 220.707 44.4595H219.707ZM218.823 47.2119C218.251 47.9449 217.479 48.4702 216.487 48.7826L216.787 49.7364C217.955 49.3688 218.903 48.7341 219.611 47.8271L218.823 47.2119ZM208.957 48.1995H212.797V47.1995H208.957V48.1995ZM212.797 48.1995C213.863 48.1995 214.762 47.9657 215.423 47.4271L214.791 46.6519C214.372 46.9934 213.731 47.1995 212.797 47.1995V48.1995ZM215.431 47.4201C216.104 46.8474 216.417 46.0462 216.417 45.0895H215.417C215.417 45.8128 215.191 46.3116 214.783 46.6589L215.431 47.4201ZM216.417 45.0895C216.417 44.1328 216.104 43.3316 215.431 42.7589L214.783 43.5201C215.191 43.8674 215.417 44.3662 215.417 45.0895H216.417ZM215.431 42.7589C214.77 42.1955 213.868 41.9495 212.797 41.9495V42.9495C213.726 42.9495 214.364 43.1635 214.783 43.5201L215.431 42.7589ZM212.797 41.9495H208.957V42.9495H212.797V41.9495ZM208.457 42.4495V47.6995H209.457V42.4495H208.457ZM213.187 57.0795C214.281 57.0795 215.202 56.8221 215.882 56.2391L215.232 55.4799C214.792 55.857 214.133 56.0795 213.187 56.0795V57.0795ZM215.876 56.2447C216.591 55.6532 216.927 54.8205 216.927 53.8195H215.927C215.927 54.5785 215.684 55.1058 215.238 55.4743L215.876 56.2447ZM216.927 53.8195C216.927 52.7964 216.579 51.9455 215.847 51.3354L215.207 52.1036C215.675 52.4936 215.927 53.0426 215.927 53.8195H216.927ZM215.855 51.3417C215.14 50.7226 214.202 50.4395 213.097 50.4395V51.4395C214.032 51.4395 214.714 51.6764 215.2 52.0974L215.855 51.3417ZM213.097 50.4395H208.957V51.4395H213.097V50.4395ZM208.457 50.9395V56.5795H209.457V50.9395H208.457ZM208.957 57.0795H213.187V56.0795H208.957V57.0795ZM225.804 59.5195L225.451 59.8731L225.458 59.8804L225.466 59.8875L225.804 59.5195ZM225.804 56.0095L226.15 56.3705L226.151 56.3702L225.804 56.0095ZM229.524 56.0095L229.171 56.3631L229.178 56.3705L229.524 56.0095ZM229.524 59.5195L229.87 59.8806L229.878 59.8731L229.524 59.5195ZM227.694 59.7095C227.044 59.7095 226.54 59.5164 226.143 59.1515L225.466 59.8875C226.069 60.4427 226.825 60.7095 227.694 60.7095V59.7095ZM226.158 59.166C225.775 58.7829 225.584 58.3215 225.584 57.7495H224.584C224.584 58.5775 224.874 59.2961 225.451 59.8731L226.158 59.166ZM225.584 57.7495C225.584 57.1777 225.774 56.7308 226.15 56.3705L225.458 55.6485C224.874 56.2083 224.584 56.9213 224.584 57.7495H225.584ZM226.151 56.3702C226.548 55.9886 227.05 55.7895 227.694 55.7895V54.7895C226.819 54.7895 226.061 55.0704 225.458 55.6488L226.151 56.3702ZM227.694 55.7895C228.315 55.7895 228.794 55.9857 229.171 56.3631L229.878 55.656C229.295 55.0733 228.554 54.7895 227.694 54.7895V55.7895ZM229.178 56.3705C229.554 56.7308 229.744 57.1777 229.744 57.7495H230.744C230.744 56.9213 230.454 56.2083 229.87 55.6485L229.178 56.3705ZM229.744 57.7495C229.744 58.3215 229.554 58.7829 229.171 59.166L229.878 59.8731C230.455 59.2961 230.744 58.5775 230.744 57.7495H229.744ZM229.178 59.1585C228.802 59.5189 228.321 59.7095 227.694 59.7095V60.7095C228.548 60.7095 229.286 60.4401 229.87 59.8805L229.178 59.1585ZM235.787 43.9795L235.354 43.7309L235.353 43.7326L235.787 43.9795ZM239.597 40.1695L239.843 40.6053L239.844 40.6043L239.597 40.1695ZM254.867 45.5695V46.0695H255.559L255.342 45.4127L254.867 45.5695ZM250.037 45.5695L249.587 45.7859L249.723 46.0695H250.037V45.5695ZM247.997 43.3195L247.746 43.7518L247.75 43.7542L247.997 43.3195ZM241.727 43.4395L241.983 43.8691L241.986 43.8675L241.727 43.4395ZM239.507 45.8395L239.064 45.6091L239.06 45.6159L239.507 45.8395ZM239.507 53.1595L239.058 53.3798L239.064 53.3899L239.507 53.1595ZM241.727 55.5895L241.465 56.0152L241.475 56.0214L241.727 55.5895ZM247.997 55.6795L248.249 56.1118L248.252 56.11L247.997 55.6795ZM250.037 53.3995V52.8995H249.723L249.587 53.1831L250.037 53.3995ZM254.867 53.3995L255.343 53.555L255.557 52.8995H254.867V53.3995ZM251.177 58.4095L251.458 58.8233L251.459 58.8226L251.177 58.4095ZM239.597 58.8295L239.348 59.263L239.355 59.2666L239.597 58.8295ZM235.787 55.0195L235.353 55.2664L235.355 55.2705L235.787 55.0195ZM234.907 49.4995C234.907 47.5167 235.349 45.7634 236.222 44.2264L235.353 43.7326C234.385 45.4356 233.907 47.3623 233.907 49.4995H234.907ZM236.221 44.2281C237.118 42.664 238.324 41.4597 239.843 40.6053L239.352 39.7337C237.671 40.6793 236.337 42.0151 235.354 43.7309L236.221 44.2281ZM239.844 40.6043C241.384 39.7302 243.107 39.2895 245.027 39.2895V38.2895C242.947 38.2895 241.051 38.7689 239.351 39.7347L239.844 40.6043ZM245.027 39.2895C247.277 39.2895 249.227 39.8648 250.896 41.0026L251.459 40.1764C249.608 38.9142 247.458 38.2895 245.027 38.2895V39.2895ZM250.896 41.0026C252.56 42.1376 253.725 43.7052 254.393 45.7263L255.342 45.4127C254.61 43.1938 253.314 41.4414 251.459 40.1764L250.896 41.0026ZM254.867 45.0695H250.037V46.0695H254.867V45.0695ZM250.488 45.3531C249.969 44.2705 249.222 43.4399 248.244 42.8848L247.75 43.7542C248.533 44.1991 249.146 44.8685 249.587 45.7859L250.488 45.3531ZM248.249 42.8873C247.302 42.3367 246.213 42.0695 244.997 42.0695V43.0695C246.062 43.0695 246.973 43.3023 247.746 43.7518L248.249 42.8873ZM244.997 42.0695C243.695 42.0695 242.514 42.3803 241.469 43.0116L241.986 43.8675C242.861 43.3387 243.86 43.0695 244.997 43.0695V42.0695ZM241.472 43.01C240.446 43.621 239.643 44.4926 239.064 45.6091L239.951 46.0699C240.451 45.1064 241.129 44.378 241.983 43.8691L241.472 43.01ZM239.06 45.6159C238.499 46.7381 238.227 48.0375 238.227 49.4995H239.227C239.227 48.1615 239.476 47.0209 239.955 46.0631L239.06 45.6159ZM238.227 49.4995C238.227 50.943 238.5 52.2405 239.059 53.3797L239.956 52.9393C239.475 51.9585 239.227 50.816 239.227 49.4995H238.227ZM239.064 53.3899C239.643 54.5051 240.443 55.3846 241.465 56.015L241.99 55.164C241.132 54.6344 240.452 53.894 239.951 52.9291L239.064 53.3899ZM241.475 56.0214C242.519 56.6303 243.698 56.9295 244.997 56.9295V55.9295C243.857 55.9295 242.856 55.6687 241.979 55.1576L241.475 56.0214ZM244.997 56.9295C246.213 56.9295 247.302 56.6623 248.249 56.1118L247.746 55.2473C246.973 55.6967 246.062 55.9295 244.997 55.9295V56.9295ZM248.252 56.11C249.224 55.5353 249.969 54.6972 250.488 53.6159L249.587 53.1831C249.146 54.1019 248.531 54.7837 247.743 55.249L248.252 56.11ZM250.037 53.8995H254.867V52.8995H250.037V53.8995ZM254.392 53.2441C253.724 55.2856 252.559 56.8623 250.896 57.9964L251.459 58.8226C253.316 57.5568 254.61 55.7935 255.343 53.555L254.392 53.2441ZM250.897 57.9957C249.25 59.1128 247.3 59.6795 245.027 59.6795V60.6795C247.475 60.6795 249.625 60.0662 251.458 58.8233L250.897 57.9957ZM245.027 59.6795C243.105 59.6795 241.38 59.2479 239.84 58.3924L239.355 59.2666C241.055 60.2111 242.949 60.6795 245.027 60.6795V59.6795ZM239.847 58.3961C238.324 57.5204 237.117 56.3139 236.22 54.7686L235.355 55.2705C236.338 56.9651 237.671 58.2986 239.348 59.263L239.847 58.3961ZM236.222 54.7726C235.349 53.2356 234.907 51.4823 234.907 49.4995H233.907C233.907 51.6367 234.385 53.5634 235.353 55.2664L236.222 54.7726ZM264.575 58.8295L264.819 58.3934L264.575 58.8295ZM260.675 55.0195L260.243 55.2721L260.245 55.2744L260.675 55.0195ZM260.675 43.9795L261.105 44.2344L261.106 44.2321L260.675 43.9795ZM264.575 40.1395L264.33 39.7034V39.7034L264.575 40.1395ZM275.375 40.1395L275.128 40.5743L275.13 40.5756L275.375 40.1395ZM279.245 43.9795L278.811 44.2282L278.815 44.2344L279.245 43.9795ZM279.245 55.0195L278.813 54.7669L278.812 54.7686L279.245 55.0195ZM275.375 58.8295L275.13 58.3934L275.375 58.8295ZM273.305 55.6195L273.557 56.0515L273.563 56.0475L273.305 55.6195ZM275.555 53.1595L276 53.3865L275.555 53.1595ZM275.555 45.8095L275.109 46.0365L275.111 46.0399L275.555 45.8095ZM273.305 43.3795L273.053 43.8114H273.053L273.305 43.3795ZM266.615 43.3795L266.367 42.9454L266.363 42.9476L266.615 43.3795ZM264.365 45.8095L264.809 46.0399L264.81 46.0365L264.365 45.8095ZM264.365 53.1595L264.81 52.9325L264.365 53.1595ZM266.615 55.6195L266.356 56.0476L266.367 56.0536L266.615 55.6195ZM269.975 59.7095C268.097 59.7095 266.381 59.2697 264.819 58.3934L264.33 59.2656C266.048 60.2293 267.933 60.7095 269.975 60.7095V59.7095ZM264.819 58.3934C263.256 57.5165 262.02 56.3091 261.105 54.7646L260.245 55.2744C261.249 56.97 262.613 58.3025 264.33 59.2656L264.819 58.3934ZM261.106 54.7669C260.195 53.2099 259.735 51.4484 259.735 49.4695H258.735C258.735 51.6106 259.235 53.5491 260.243 55.2721L261.106 54.7669ZM259.735 49.4695C259.735 47.5115 260.194 45.7709 261.105 44.2344L260.245 43.7246C259.235 45.4282 258.735 47.3475 258.735 49.4695H259.735ZM261.106 44.2321C262.022 42.6679 263.258 41.4516 264.819 40.5756L264.33 39.7034C262.612 40.6674 261.248 42.0111 260.243 43.7269L261.106 44.2321ZM264.819 40.5756C266.381 39.6993 268.097 39.2595 269.975 39.2595V38.2595C267.933 38.2595 266.048 38.7397 264.33 39.7034L264.819 40.5756ZM269.975 39.2595C271.874 39.2595 273.588 39.6997 275.128 40.5743L275.622 39.7047C273.922 38.7393 272.036 38.2595 269.975 38.2595V39.2595ZM275.13 40.5756C276.691 41.4511 277.916 42.6661 278.811 44.2281L279.679 43.7309C278.694 42.0129 277.339 40.6679 275.619 39.7034L275.13 40.5756ZM278.815 44.2344C279.725 45.7709 280.185 47.5115 280.185 49.4695H281.185C281.185 47.3475 280.684 45.4282 279.675 43.7246L278.815 44.2344ZM280.185 49.4695C280.185 51.4484 279.725 53.2099 278.813 54.7669L279.676 55.2721C280.685 53.5491 281.185 51.6106 281.185 49.4695H280.185ZM278.812 54.7686C277.917 56.3108 276.692 57.517 275.13 58.3934L275.619 59.2656C277.337 58.302 278.692 56.9682 279.677 55.2705L278.812 54.7686ZM275.13 58.3934C273.568 59.2697 271.853 59.7095 269.975 59.7095V60.7095C272.017 60.7095 273.901 60.2293 275.619 59.2656L275.13 58.3934ZM269.975 56.9595C271.311 56.9595 272.51 56.6617 273.557 56.0514L273.053 55.1876C272.179 55.6973 271.158 55.9595 269.975 55.9595V56.9595ZM273.563 56.0475C274.608 55.4163 275.421 54.5243 276 53.3865L275.109 52.9325C274.609 53.9147 273.921 54.6628 273.046 55.1916L273.563 56.0475ZM276 53.3865C276.582 52.2448 276.865 50.9345 276.865 49.4695H275.865C275.865 50.8045 275.608 51.9543 275.109 52.9325L276 53.3865ZM276.865 49.4695C276.865 48.0048 276.582 46.7029 275.999 45.5791L275.111 46.0399C275.608 46.9961 275.865 48.1342 275.865 49.4695H276.865ZM276 45.5825C275.42 44.4434 274.605 43.5594 273.557 42.9476L273.053 43.8114C273.924 44.3196 274.61 45.0556 275.109 46.0365L276 45.5825ZM273.557 42.9476C272.51 42.3373 271.311 42.0395 269.975 42.0395V43.0395C271.158 43.0395 272.179 43.3017 273.053 43.8114L273.557 42.9476ZM269.975 42.0395C268.638 42.0395 267.431 42.3374 266.367 42.9454L266.863 43.8136C267.759 43.3017 268.791 43.0395 269.975 43.0395V42.0395ZM266.363 42.9476C265.314 43.5594 264.5 44.4434 263.919 45.5825L264.81 46.0365C265.31 45.0556 265.995 44.3196 266.867 43.8114L266.363 42.9476ZM263.921 45.5791C263.338 46.7029 263.055 48.0048 263.055 49.4695H264.055C264.055 48.1342 264.312 46.9961 264.809 46.0399L263.921 45.5791ZM263.055 49.4695C263.055 50.9345 263.338 52.2448 263.919 53.3865L264.81 52.9325C264.312 51.9543 264.055 50.8045 264.055 49.4695H263.055ZM263.919 53.3865C264.499 54.5243 265.311 55.4163 266.356 56.0475L266.873 55.1916C265.998 54.6628 265.311 53.9147 264.81 52.9325L263.919 53.3865ZM266.367 56.0536C267.431 56.6617 268.638 56.9595 269.975 56.9595V55.9595C268.791 55.9595 267.759 55.6974 266.863 55.1854L266.367 56.0536ZM308.439 39.0595H308.939V38.5595H308.439V39.0595ZM308.439 59.9995V60.4995H308.939V59.9995H308.439ZM304.239 59.9995H303.739V60.4995H304.239V59.9995ZM304.239 46.3795H304.739L303.777 46.1891L304.239 46.3795ZM298.629 59.9995V60.4995H298.964L299.092 60.1899L298.629 59.9995ZM295.449 59.9995L294.988 60.1908L295.115 60.4995H295.449V59.9995ZM289.809 46.3795L290.271 46.1882L289.309 46.3795H289.809ZM289.809 59.9995V60.4995H290.309V59.9995H289.809ZM285.609 59.9995H285.109V60.4995H285.609V59.9995ZM285.609 39.0595V38.5595H285.109V39.0595H285.609ZM290.379 39.0595L290.839 38.8629L290.709 38.5595H290.379V39.0595ZM297.039 54.6295L296.58 54.8262L297.039 55.9009L297.499 54.8262L297.039 54.6295ZM303.699 39.0595V38.5595H303.37L303.24 38.8629L303.699 39.0595ZM307.939 39.0595V59.9995H308.939V39.0595H307.939ZM308.439 59.4995H304.239V60.4995H308.439V59.4995ZM304.739 59.9995V46.3795H303.739V59.9995H304.739ZM303.777 46.1891L298.167 59.8091L299.092 60.1899L304.702 46.5699L303.777 46.1891ZM298.629 59.4995H295.449V60.4995H298.629V59.4995ZM295.911 59.8082L290.271 46.1882L289.348 46.5708L294.988 60.1908L295.911 59.8082ZM289.309 46.3795V59.9995H290.309V46.3795H289.309ZM289.809 59.4995H285.609V60.4995H289.809V59.4995ZM286.109 59.9995V39.0595H285.109V59.9995H286.109ZM285.609 39.5595H290.379V38.5595H285.609V39.5595ZM289.92 39.2562L296.58 54.8262L297.499 54.4329L290.839 38.8629L289.92 39.2562ZM297.499 54.8262L304.159 39.2562L303.24 38.8629L296.58 54.4329L297.499 54.8262ZM303.699 39.5595H308.439V38.5595H303.699V39.5595Z" fill="black"/>
</g>
<defs>
<filter id="filter0_d_23_2303" x="0.187469" y="1.7168" width="87.2007" height="92.0547" filterUnits="userSpaceOnUse" color-interpolation-filters="sRGB">
<feFlood flood-opacity="0" result="BackgroundImageFix"/>
<feColorMatrix in="SourceAlpha" type="matrix" values="0 0 0 0 0 0 0 0 0 0 0 0 0 0 0 0 0 0 127 0" result="hardAlpha"/>
<feOffset dy="4"/>
<feGaussianBlur stdDeviation="2"/>
<feComposite in2="hardAlpha" operator="out"/>
<feColorMatrix type="matrix" values="0 0 0 0 0 0 0 0 0 0 0 0 0 0 0 0 0 0 0.25 0"/>
<feBlend mode="normal" in2="BackgroundImageFix" result="effect1_dropShadow_23_2303"/>
<feBlend mode="normal" in="SourceGraphic" in2="effect1_dropShadow_23_2303" result="shape"/>
</filter>
<filter id="filter1_d_23_2303" x="40.96" y="38.7593" width="271.479" height="29.4502" filterUnits="userSpaceOnUse" color-interpolation-filters="sRGB">
<feFlood flood-opacity="0" result="BackgroundImageFix"/>
<feColorMatrix in="SourceAlpha" type="matrix" values="0 0 0 0 0 0 0 0 0 0 0 0 0 0 0 0 0 0 127 0" result="hardAlpha"/>
<feOffset dy="4"/>
<feGaussianBlur stdDeviation="2"/>
<feComposite in2="hardAlpha" operator="out"/>
<feColorMatrix type="matrix" values="0 0 0 0 0 0 0 0 0 0 0 0 0 0 0 0 0 0 0.25 0"/>
<feBlend mode="normal" in2="BackgroundImageFix" result="effect1_dropShadow_23_2303"/>
<feBlend mode="normal" in="SourceGraphic" in2="effect1_dropShadow_23_2303" result="shape"/>
</filter>
</defs>
</svg>
