<svg width="322" height="117" viewBox="0 0 322 117" fill="none" xmlns="http://www.w3.org/2000/svg">
<g filter="url(#filter0_d_155_44)">
<path d="M52.394 2.304L43.61 36H33.674L28.298 13.824L22.73 36H12.794L4.25 2.304H13.034L17.882 26.832L23.882 2.304H32.906L38.666 26.832L43.562 2.304H52.394ZM83.1984 22.176C83.1984 22.944 83.1504 23.744 83.0544 24.576H64.4784C64.6064 26.24 65.1344 27.52 66.0624 28.416C67.0224 29.28 68.1904 29.712 69.5664 29.712C71.6144 29.712 73.0384 28.848 73.8384 27.12H82.5744C82.1264 28.88 81.3104 30.464 80.1264 31.872C78.9744 33.28 77.5184 34.384 75.7584 35.184C73.9984 35.984 72.0304 36.384 69.8544 36.384C67.2304 36.384 64.8944 35.824 62.8464 34.704C60.7984 33.584 59.1984 31.984 58.0464 29.904C56.8944 27.824 56.3184 25.392 56.3184 22.608C56.3184 19.824 56.8784 17.392 57.9984 15.312C59.1504 13.232 60.7504 11.632 62.7984 10.512C64.8464 9.392 67.1984 8.832 69.8544 8.832C72.4464 8.832 74.7504 9.376 76.7664 10.464C78.7824 11.552 80.3504 13.104 81.4704 15.12C82.6224 17.136 83.1984 19.488 83.1984 22.176ZM74.7984 20.016C74.7984 18.608 74.3184 17.488 73.3584 16.656C72.3984 15.824 71.1984 15.408 69.7584 15.408C68.3824 15.408 67.2144 15.808 66.2544 16.608C65.3264 17.408 64.7504 18.544 64.5264 20.016H74.7984ZM97.1765 0.48V36H88.9685V0.48H97.1765ZM102.933 22.608C102.933 19.824 103.493 17.392 104.613 15.312C105.765 13.232 107.349 11.632 109.365 10.512C111.413 9.392 113.749 8.832 116.373 8.832C119.733 8.832 122.533 9.712 124.773 11.472C127.045 13.232 128.533 15.712 129.237 18.912H120.501C119.765 16.864 118.341 15.84 116.229 15.84C114.725 15.84 113.525 16.432 112.629 17.616C111.733 18.768 111.285 20.432 111.285 22.608C111.285 24.784 111.733 26.464 112.629 27.648C113.525 28.8 114.725 29.376 116.229 29.376C118.341 29.376 119.765 28.352 120.501 26.304H129.237C128.533 29.44 127.045 31.904 124.773 33.696C122.501 35.488 119.701 36.384 116.373 36.384C113.749 36.384 111.413 35.824 109.365 34.704C107.349 33.584 105.765 31.984 104.613 29.904C103.493 27.824 102.933 25.392 102.933 22.608ZM147.259 36.384C144.635 36.384 142.267 35.824 140.155 34.704C138.075 33.584 136.427 31.984 135.211 29.904C134.027 27.824 133.435 25.392 133.435 22.608C133.435 19.856 134.043 17.44 135.259 15.36C136.475 13.248 138.139 11.632 140.251 10.512C142.363 9.392 144.731 8.832 147.355 8.832C149.979 8.832 152.347 9.392 154.459 10.512C156.571 11.632 158.235 13.248 159.451 15.36C160.667 17.44 161.275 19.856 161.275 22.608C161.275 25.36 160.651 27.792 159.403 29.904C158.187 31.984 156.507 33.584 154.363 34.704C152.251 35.824 149.883 36.384 147.259 36.384ZM147.259 29.28C148.827 29.28 150.155 28.704 151.243 27.552C152.363 26.4 152.923 24.752 152.923 22.608C152.923 20.464 152.379 18.816 151.291 17.664C150.235 16.512 148.923 15.936 147.355 15.936C145.755 15.936 144.427 16.512 143.371 17.664C142.315 18.784 141.787 20.432 141.787 22.608C141.787 24.752 142.299 26.4 143.323 27.552C144.379 28.704 145.691 29.28 147.259 29.28ZM201.246 8.928C204.574 8.928 207.214 9.936 209.166 11.952C211.15 13.968 212.142 16.768 212.142 20.352V36H203.982V21.456C203.982 19.728 203.518 18.4 202.59 17.472C201.694 16.512 200.446 16.032 198.846 16.032C197.246 16.032 195.982 16.512 195.054 17.472C194.158 18.4 193.71 19.728 193.71 21.456V36H185.55V21.456C185.55 19.728 185.086 18.4 184.158 17.472C183.262 16.512 182.014 16.032 180.414 16.032C178.814 16.032 177.55 16.512 176.622 17.472C175.726 18.4 175.278 19.728 175.278 21.456V36H167.07V9.216H175.278V12.576C176.11 11.456 177.198 10.576 178.542 9.936C179.886 9.264 181.406 8.928 183.102 8.928C185.118 8.928 186.91 9.36 188.478 10.224C190.078 11.088 191.326 12.32 192.222 13.92C193.15 12.448 194.414 11.248 196.014 10.32C197.614 9.392 199.358 8.928 201.246 8.928ZM244.57 22.176C244.57 22.944 244.522 23.744 244.426 24.576H225.85C225.978 26.24 226.506 27.52 227.434 28.416C228.394 29.28 229.562 29.712 230.938 29.712C232.986 29.712 234.41 28.848 235.21 27.12H243.946C243.498 28.88 242.682 30.464 241.498 31.872C240.346 33.28 238.89 34.384 237.13 35.184C235.37 35.984 233.402 36.384 231.226 36.384C228.602 36.384 226.266 35.824 224.218 34.704C222.17 33.584 220.57 31.984 219.418 29.904C218.266 27.824 217.69 25.392 217.69 22.608C217.69 19.824 218.25 17.392 219.37 15.312C220.522 13.232 222.122 11.632 224.17 10.512C226.218 9.392 228.57 8.832 231.226 8.832C233.818 8.832 236.122 9.376 238.138 10.464C240.154 11.552 241.722 13.104 242.842 15.12C243.994 17.136 244.57 19.488 244.57 22.176ZM236.17 20.016C236.17 18.608 235.69 17.488 234.73 16.656C233.77 15.824 232.57 15.408 231.13 15.408C229.754 15.408 228.586 15.808 227.626 16.608C226.698 17.408 226.122 18.544 225.898 20.016H236.17ZM286.192 2.304V8.88H277.264V36H269.056V8.88H260.128V2.304H286.192ZM303.944 36.384C301.32 36.384 298.952 35.824 296.84 34.704C294.76 33.584 293.112 31.984 291.896 29.904C290.712 27.824 290.12 25.392 290.12 22.608C290.12 19.856 290.728 17.44 291.944 15.36C293.16 13.248 294.824 11.632 296.936 10.512C299.048 9.392 301.416 8.832 304.04 8.832C306.664 8.832 309.032 9.392 311.144 10.512C313.256 11.632 314.92 13.248 316.136 15.36C317.352 17.44 317.96 19.856 317.96 22.608C317.96 25.36 317.336 27.792 316.088 29.904C314.872 31.984 313.192 33.584 311.048 34.704C308.936 35.824 306.568 36.384 303.944 36.384ZM303.944 29.28C305.512 29.28 306.84 28.704 307.928 27.552C309.048 26.4 309.608 24.752 309.608 22.608C309.608 20.464 309.064 18.816 307.976 17.664C306.92 16.512 305.608 15.936 304.04 15.936C302.44 15.936 301.112 16.512 300.056 17.664C299 18.784 298.472 20.432 298.472 22.608C298.472 24.752 298.984 26.4 300.008 27.552C301.064 28.704 302.376 29.28 303.944 29.28ZM48.0251 74.304V80.88H39.0971V108H30.8891V80.88H21.9611V74.304H48.0251ZM57.7124 78.432C56.2724 78.432 55.0884 78.016 54.1604 77.184C53.2644 76.32 52.8164 75.264 52.8164 74.016C52.8164 72.736 53.2644 71.68 54.1604 70.848C55.0884 69.984 56.2724 69.552 57.7124 69.552C59.1204 69.552 60.2724 69.984 61.1684 70.848C62.0964 71.68 62.5604 72.736 62.5604 74.016C62.5604 75.264 62.0964 76.32 61.1684 77.184C60.2724 78.016 59.1204 78.432 57.7124 78.432ZM61.7924 81.216V108H53.5844V81.216H61.7924ZM67.5487 94.608C67.5487 91.824 68.1087 89.392 69.2287 87.312C70.3807 85.232 71.9647 83.632 73.9807 82.512C76.0287 81.392 78.3647 80.832 80.9887 80.832C84.3487 80.832 87.1487 81.712 89.3887 83.472C91.6607 85.232 93.1487 87.712 93.8527 90.912H85.1167C84.3807 88.864 82.9567 87.84 80.8447 87.84C79.3407 87.84 78.1407 88.432 77.2447 89.616C76.3487 90.768 75.9007 92.432 75.9007 94.608C75.9007 96.784 76.3487 98.464 77.2447 99.648C78.1407 100.8 79.3407 101.376 80.8447 101.376C82.9567 101.376 84.3807 100.352 85.1167 98.304H93.8527C93.1487 101.44 91.6607 103.904 89.3887 105.696C87.1167 107.488 84.3167 108.384 80.9887 108.384C78.3647 108.384 76.0287 107.824 73.9807 106.704C71.9647 105.584 70.3807 103.984 69.2287 101.904C68.1087 99.824 67.5487 97.392 67.5487 94.608ZM116.051 108L107.891 96.768V108H99.6832V72.48H107.891V92.112L116.003 81.216H126.131L114.995 94.656L126.227 108H116.051ZM156.043 94.176C156.043 94.944 155.995 95.744 155.899 96.576H137.323C137.451 98.24 137.979 99.52 138.907 100.416C139.867 101.28 141.035 101.712 142.411 101.712C144.459 101.712 145.883 100.848 146.683 99.12H155.419C154.971 100.88 154.155 102.464 152.971 103.872C151.819 105.28 150.363 106.384 148.603 107.184C146.843 107.984 144.875 108.384 142.699 108.384C140.075 108.384 137.739 107.824 135.691 106.704C133.643 105.584 132.043 103.984 130.891 101.904C129.739 99.824 129.163 97.392 129.163 94.608C129.163 91.824 129.723 89.392 130.843 87.312C131.995 85.232 133.595 83.632 135.643 82.512C137.691 81.392 140.043 80.832 142.699 80.832C145.291 80.832 147.595 81.376 149.611 82.464C151.627 83.552 153.195 85.104 154.315 87.12C155.467 89.136 156.043 91.488 156.043 94.176ZM147.643 92.016C147.643 90.608 147.163 89.488 146.203 88.656C145.243 87.824 144.043 87.408 142.603 87.408C141.227 87.408 140.059 87.808 139.099 88.608C138.171 89.408 137.595 90.544 137.371 92.016H147.643ZM160.181 94.608C160.181 91.824 160.741 89.392 161.861 87.312C163.013 85.232 164.597 83.632 166.613 82.512C168.661 81.392 170.997 80.832 173.621 80.832C176.981 80.832 179.781 81.712 182.021 83.472C184.293 85.232 185.781 87.712 186.485 90.912H177.749C177.013 88.864 175.589 87.84 173.477 87.84C171.973 87.84 170.773 88.432 169.877 89.616C168.981 90.768 168.533 92.432 168.533 94.608C168.533 96.784 168.981 98.464 169.877 99.648C170.773 100.8 171.973 101.376 173.477 101.376C175.589 101.376 177.013 100.352 177.749 98.304H186.485C185.781 101.44 184.293 103.904 182.021 105.696C179.749 107.488 176.949 108.384 173.621 108.384C170.997 108.384 168.661 107.824 166.613 106.704C164.597 105.584 163.013 103.984 161.861 101.904C160.741 99.824 160.181 97.392 160.181 94.608ZM207.244 101.04V108H203.068C200.092 108 197.772 107.28 196.108 105.84C194.444 104.368 193.612 101.984 193.612 98.688V88.032H190.348V81.216H193.612V74.688H201.82V81.216H207.196V88.032H201.82V98.784C201.82 99.584 202.012 100.16 202.396 100.512C202.78 100.864 203.42 101.04 204.316 101.04H207.244Z" fill="black"/>
<path d="M242.44 74.304V108H234.232V94.128H221.464V108H213.256V74.304H221.464V87.504H234.232V74.304H242.44ZM276.253 81.216V108H268.045V104.352C267.213 105.536 266.077 106.496 264.637 107.232C263.229 107.936 261.661 108.288 259.933 108.288C257.885 108.288 256.077 107.84 254.509 106.944C252.941 106.016 251.725 104.688 250.861 102.96C249.997 101.232 249.565 99.2 249.565 96.864V81.216H257.725V95.76C257.725 97.552 258.189 98.944 259.117 99.936C260.045 100.928 261.293 101.424 262.861 101.424C264.461 101.424 265.725 100.928 266.653 99.936C267.581 98.944 268.045 97.552 268.045 95.76V81.216H276.253ZM291.797 85.008C292.565 83.76 293.669 82.752 295.109 81.984C296.549 81.216 298.197 80.832 300.053 80.832C302.261 80.832 304.261 81.392 306.053 82.512C307.845 83.632 309.253 85.232 310.277 87.312C311.333 89.392 311.861 91.808 311.861 94.56C311.861 97.312 311.333 99.744 310.277 101.856C309.253 103.936 307.845 105.552 306.053 106.704C304.261 107.824 302.261 108.384 300.053 108.384C298.165 108.384 296.517 108.016 295.109 107.28C293.701 106.512 292.597 105.504 291.797 104.256V108H283.589V72.48H291.797V85.008ZM303.509 94.56C303.509 92.512 302.933 90.912 301.781 89.76C300.661 88.576 299.269 87.984 297.605 87.984C295.973 87.984 294.581 88.576 293.429 89.76C292.309 90.944 291.749 92.56 291.749 94.608C291.749 96.656 292.309 98.272 293.429 99.456C294.581 100.64 295.973 101.232 297.605 101.232C299.237 101.232 300.629 100.64 301.781 99.456C302.933 98.24 303.509 96.608 303.509 94.56Z" fill="#FF3838"/>
</g>
<defs>
<filter id="filter0_d_155_44" x="0.25" y="0.480011" width="321.709" height="115.904" filterUnits="userSpaceOnUse" color-interpolation-filters="sRGB">
<feFlood flood-opacity="0" result="BackgroundImageFix"/>
<feColorMatrix in="SourceAlpha" type="matrix" values="0 0 0 0 0 0 0 0 0 0 0 0 0 0 0 0 0 0 127 0" result="hardAlpha"/>
<feOffset dy="4"/>
<feGaussianBlur stdDeviation="2"/>
<feComposite in2="hardAlpha" operator="out"/>
<feColorMatrix type="matrix" values="0 0 0 0 0 0 0 0 0 0 0 0 0 0 0 0 0 0 0.25 0"/>
<feBlend mode="normal" in2="BackgroundImageFix" result="effect1_dropShadow_155_44"/>
<feBlend mode="normal" in="SourceGraphic" in2="effect1_dropShadow_155_44" result="shape"/>
</filter>
</defs>
</svg>
